<svg xmlns="http://www.w3.org/2000/svg" xmlns:xlink="http://www.w3.org/1999/xlink" width="1800" zoomAndPan="magnify" viewBox="0 0 1350 1129.499971" height="1506" preserveAspectRatio="xMidYMid meet" version="1.0"><defs><g/><clipPath id="c3048f9dce"><path d="M 0.296875 0 L 1077 0 L 1077 917 L 0.296875 917 Z M 0.296875 0 " clip-rule="nonzero"/></clipPath><clipPath id="b3d6ae1256"><path d="M 881 4 L 1349.699219 4 L 1349.699219 369 L 881 369 Z M 881 4 " clip-rule="nonzero"/></clipPath></defs><g clip-path="url(#c3048f9dce)"><path fill="#ffffff" d="M 822.878906 0.421875 C 901.105469 0.421875 979.335938 0.324219 1057.546875 0.636719 C 1063.835938 0.65625 1070.121094 3.625 1076.410156 5.207031 C 1072.914062 10.675781 1070.0625 16.730469 1065.808594 21.550781 C 1026.710938 65.746094 986.640625 109.117188 948.421875 154.050781 C 931.21875 174.261719 912.316406 184.789062 885.25 184.59375 C 812.410156 184.066406 739.53125 186.484375 666.691406 185.453125 C 597.660156 184.476562 543.199219 209.683594 497.207031 261.707031 C 413.472656 356.457031 326.964844 448.765625 241.117188 541.621094 C 203.585938 582.222656 197.042969 627.78125 216.941406 677.773438 C 233.757812 720.03125 281.621094 749.402344 331.261719 749.226562 C 468.523438 748.738281 605.804688 748.054688 743.066406 747.46875 C 749.960938 747.429688 756.914062 747.078125 763.765625 747.742188 C 774.039062 748.71875 778.667969 753.738281 770.367188 762.503906 C 724.574219 810.953125 678.820312 859.460938 632.03125 906.953125 C 626.054688 913.007812 614.105469 915.644531 604.886719 915.703125 C 487.542969 916.445312 370.179688 917.871094 252.875 916.113281 C 160.703125 914.726562 59.820312 855.183594 16.097656 743.503906 C -18.449219 655.238281 4.789062 552.578125 74.835938 480.988281 C 126.273438 428.398438 181.1875 377.683594 223.933594 318.476562 C 284.664062 234.328125 357.992188 161.960938 424.703125 83.535156 C 473.191406 26.453125 535.972656 -0.59375 611.195312 0.226562 C 681.75 1.007812 752.304688 0.402344 822.859375 0.402344 Z M 822.878906 0.421875 " fill-opacity="1" fill-rule="nonzero"/></g><path fill="#ffffff" d="M 881.675781 443.046875 C 959.125 443.046875 1036.574219 442.480469 1114 443.222656 C 1183.699219 443.886719 1233.023438 487.433594 1239.800781 555.429688 C 1244.15625 599.171875 1226.601562 636.742188 1197.40625 668.28125 C 1117.828125 754.324219 1036.828125 839.074219 957.933594 925.738281 C 929.246094 957.257812 904.738281 992.621094 878.648438 1026.484375 C 829.691406 1090.007812 768.21875 1129.261719 685.226562 1128.480469 C 602.425781 1127.699219 519.648438 1127.71875 436.847656 1126.800781 C 427.609375 1126.703125 418.433594 1122.875 409.214844 1120.785156 C 414.097656 1112.523438 417.652344 1103.035156 424.058594 1096.238281 C 455.085938 1063.351562 486.332031 1030.625 518.867188 999.242188 C 525.542969 992.796875 537.925781 989.910156 547.824219 989.578125 C 583.054688 988.445312 618.417969 990.398438 653.589844 988.40625 C 665.988281 987.703125 681.203125 982.117188 689.578125 973.425781 C 789.542969 869.65625 888.453125 764.90625 987.597656 660.351562 C 991.269531 656.488281 994.800781 652.308594 997.613281 647.796875 C 1012.046875 624.636719 1001.871094 604.035156 974.53125 603.449219 C 929.304688 602.453125 884.058594 602.863281 838.8125 602.902344 C 729.925781 602.960938 621.054688 603.175781 512.167969 603.253906 C 504.511719 603.253906 496.757812 603.429688 489.203125 602.394531 C 478.304688 600.890625 476.039062 594.601562 483.519531 586.734375 C 526.226562 541.699219 568.601562 496.296875 612.71875 452.671875 C 620.019531 445.449219 635.371094 444.003906 647.027344 443.90625 C 725.238281 443.183594 803.449219 443.535156 881.65625 443.535156 C 881.65625 443.378906 881.65625 443.222656 881.65625 443.066406 Z M 881.675781 443.046875 " fill-opacity="1" fill-rule="nonzero"/><g clip-path="url(#b3d6ae1256)"><path fill="#fbb73e" d="M 963.246094 367.824219 C 937.761719 367.824219 917.0625 368.117188 896.382812 367.609375 C 891.441406 367.492188 886.578125 364.679688 881.65625 363.097656 C 883.628906 357.824219 884.273438 351.34375 887.789062 347.457031 C 932.410156 297.933594 977.1875 248.585938 1022.414062 199.609375 C 1078.558594 138.816406 1134.878906 78.203125 1191.898438 18.253906 C 1198.519531 11.300781 1210.019531 5.636719 1219.472656 5.285156 C 1257.746094 3.898438 1296.101562 4.699219 1334.433594 5.03125 C 1339.511719 5.070312 1344.570312 7.003906 1349.648438 8.078125 C 1346.992188 13.175781 1345.253906 19.074219 1341.5625 23.25 C 1284.246094 88.066406 1226.71875 152.703125 1169.128906 217.28125 C 1135.484375 255.011719 1101.25 292.25 1068.03125 330.347656 C 1047.917969 353.429688 1028.644531 375.363281 992.8125 366.789062 C 982.089844 364.230469 969.984375 367.492188 963.265625 367.84375 Z M 963.246094 367.824219 " fill-opacity="1" fill-rule="nonzero"/></g><g fill="#ffffff" fill-opacity="1"><g transform="translate(662.482914, 549.403868)"><g><path d="M 6.96875 -4.859375 C 6.96875 -6.910156 7.429688 -8.460938 8.359375 -9.515625 C 9.296875 -10.578125 10.640625 -11.109375 12.390625 -11.109375 C 14.160156 -11.109375 15.539062 -10.578125 16.53125 -9.515625 C 17.53125 -8.460938 18.03125 -6.910156 18.03125 -4.859375 C 18.03125 -2.867188 17.523438 -1.335938 16.515625 -0.265625 C 15.503906 0.796875 14.128906 1.328125 12.390625 1.328125 C 10.828125 1.328125 9.53125 0.847656 8.5 -0.109375 C 7.476562 -1.078125 6.96875 -2.660156 6.96875 -4.859375 Z M 6.96875 -4.859375 "/></g></g></g></svg>