<?xml version="1.0" encoding="UTF-8"?>
<svg id="Layer_2" data-name="Layer 2" xmlns="http://www.w3.org/2000/svg" viewBox="0 0 567.42 585.76">
  <defs>
    <style>
      .cls-1 {
        fill: #fefefe;
      }

      .cls-1, .cls-2 {
        stroke-width: 0px;
      }

      .cls-2 {
        fill: #61290e;
      }
    </style>
  </defs>
  <g id="Layer_1-2" data-name="Layer 1">
    <g>
      <path class="cls-2" d="m544.99,327.25c-14.71-1.18-29.43-2.37-44.14-3.55,16.47,4.65,33.5,6.45,51.15,12.15-7.56,1.12-13.55-.43-19.51-.9-19.66-1.58-39.27-3.73-58.9-5.71-26.93-2.72-53.96-4.05-80.96-5.81-12.1-.79-24.26-.7-36.39-1.24-38.22-1.7-76.47-2.48-114.72-2.37-26.43.08-52.88.74-79.3,2.18-21.24,1.15-42.47,2.24-63.63,4.36-18.78,1.88-37.5,4.44-56.25,6.65-9.15,1.08-18.3,2.03-27.55,2.59,13.84-5.25,28.52-7.18,42.75-11.43-10.91.77-21.81,1.55-32.72,2.32,5.51-3.71,11.73-4.19,17.77-5.2,8.98-1.49,18-2.71,27.04-3.78,2.37-.28,3.46-1.39,4.4-3.31,23.84-48.76,49.05-96.82,74.75-144.61,9.69-18.03,20.08-35.69,30.1-53.54,1.09-1.95,2.57-3.4,4.33-4.69,38.19-27.84,76.38-55.68,114.55-83.54,11.92-8.7,23.88-17.34,35.6-26.29,3.22-2.46,4.14-1.89,5.86,1.47,27.15,53.03,54.16,106.14,81.81,158.92,25.19,48.09,51.51,95.59,76.36,143.85,5.15,10,11.69,13.52,21.77,14.58,8.8.93,17.49,2.94,26.02,5.39-.07.51-.13,1.01-.2,1.52ZM181.17,129.46c.48-.55.96-1.11,1.41-1.68l.37-1.8c-.23.08-.61.09-.67.24-.27.61-.18,1.19.41,1.62-1.67-.64-1.76.31-1.55,1.56-.53-.23-.82-.02-.86.52-.01.13.13.28.2.42.23-.29.47-.59.7-.88Zm-2.01,2.98c-1.15.28-.88,1.24-.97,2.03-1.32.64-1.53,2.03-2.12,3.16-25.11,47.93-48.48,96.7-70.55,146.09-4.4,9.85-8.86,19.71-11.85,30.16,4.62-9.04,8.84-18.26,13.01-27.5,21.31-47.16,43.82-93.76,66.7-140.17,1.87-3.78,4.71-7.29,4.72-11.85,1.51.56.99-.94,1.45-1.45.11-.41.35-1.15.3-1.17-.7-.29-.62.3-.69.7Zm21.84-24.11c-1.7,1-2.19,2.83-2.95,4.43-8.66,18.19-17.45,36.33-25.89,54.63-17.61,38.19-35.25,76.38-51.58,115.14-4.06,9.65-8.28,19.26-10.81,29.52,29.4-68.28,60.94-135.57,91.95-203.09.04-.43.27-1.11.1-1.23-.55-.39-.68.19-.82.6Zm166.37,10.57c.92,2.41.62,4.92.65,7.41.29,23.09-.45,46.2.51,69.29.44,10.59.51,10.46,11.03,11.51,3.3.33,4.16-.31,4.12-3.79-.19-17.61-.02-35.23-.07-52.85,0-1.95-.1-4.17-.99-5.81-4.76-8.81-8.87-18-14.56-26.3-.39-1.07-.63-2.22-1.18-3.2-6.46-11.51-13.01-22.96-19.44-34.49-5.83-10.46-11.52-21-17.59-32.09-12.84,22.24-25.31,43.84-38.1,65.98,9.04.94,17,.89,24.96.85,2.63-.02,3.68.4,3.62,3.55-.25,12.3-.06,24.6-.06,36.91,0,15.12-.27,30.25.61,45.36.08,1.43-.7,3.8,1.99,3.71,4.34-.14,8.77,1.55,13-.55.23-.11.11-.94.15-1.44.6-8.94,1.58-17.87,1.72-26.82.29-18.62.19-37.25.11-55.87-.01-2.84.35-4.22,3.71-3.97,7.79.59,15.6.85,23.4,1.18,1.15.05,1.84.56,2.42,1.42Zm71.53,150.79c-1.97-.29-3.95-.5-5.9-.87q-7.06-1.34-7.09-8.63c-.05-9.8.18-19.59-2.36-29.22-.92-3.49-2.47-4.55-6.1-4.65-21.28-.55-42.57-1.3-63.84-2.21-40.06-1.71-80.13-3.01-120.21-4.03-1.36-.03-2.95-.28-3.61,1.05-2.48,4.97-6.31,9.49-6.52,15.3-.27,7.65,0,15.31,0,22.97.01,12.73,0,25.47,0,37.58-9.96-.75-19.25-1.04-28.41,1.59,7.58.68,15.16.93,22.71.58,4.21-.19,6.37.69,5.61,5.33-.46,2.77.79,3.72,3.65,3.71,16.81-.06,33.62.07,50.43.12.96,0,2.6.38,2.7-.55.33-3.07,1.32-6.28-.16-9.26-.53-1.07-10.56-.36-10.65.67-.24,2.75-2.11,2.09-3.62,2.09-9.49,0-18.98-.21-28.46-.06-3.43.06-4.06-1.25-4.04-4.37.13-22.14.16-44.28,0-66.41-.03-3.67,1.2-4.45,4.56-4.26,8.97.51,17.95.92,26.93.98,3.86.02,4.66,1.43,4.61,5.03-.21,14.64-.12,29.29-.08,43.94,0,1.89-.49,3.88.26,5.19,2.69,0,5.05-.29,7.3.07,3.09.5,4.11-.47,4.08-3.58-.12-15.14.13-30.29-.25-45.43-.1-3.77.78-4.3,4.15-4.15,28.75,1.22,57.51,2.34,86.27,3.28,3.73.12,4.33,1.64,4.31,4.83-.09,14.15.14,28.3-.04,42.44-.05,4.11.48,6.4,5.35,5.24,1.65-.39,3.74-.67,5.39,1.02-2.14,1.99-4.58,1.18-6.76,1.08-2.96-.13-3.92.64-3.91,3.85.02,3.87.36,6.2,5,4.44.73-.28,1.68-.22,2.48-.07,4.58.88,5.66-1.17,5.58-5.49-.33-17.6-.29-35.22-.54-52.82-.04-2.83.7-3.82,3.6-3.66,8.47.44,16.95.72,25.43.9,2.4.05,2.48,1.11,2.47,3.08-.07,10.48-.05,20.95.36,31.43.44,11.3.21,22.63.32,33.95.02,2.1-.2,3.67-2.94,3.26-7.77-1.16-15.63-.46-23.43-.95-3.33-.21-5.82-.9-5.38-5.1.1-1.02.49-2.64-1.79-2.75-8.43-.41-10.76,1.69-10.84,10.22,0,.17.03.34-.01.5-.81,2.74.43,3.37,2.99,3.41,12.63.21,25.26.63,37.9.88,11.01.22,11.01.17,9.88-10.82-.61-5.99.16-6.8,6.13-5.73,6.61,1.18,13.21.35,19.83.41-6.19-2.24-12.58-2.63-19.01-2.76-7.02-.14-6.87-.17-7.1-7.04-.11-3.3.94-3.73,4.06-3.44,5.02.47,10.11.13,15.89.13-5.47-1.43-10.31-1.93-15.21-1.63-5.88.36-4.42-4.43-4.7-7.29-.4-4.03,3.05-2.53,5.01-2.27,2.65.36,5.14-.01,7.75-1.03ZM334.21,9.74c-53.53,100.24-114.25,195.21-169.99,293.19,8.54,1.38,8.5,1.36,12.97-6.41,26.67-46.45,53.26-92.94,80.07-139.31,20.69-35.78,41.71-71.36,62.49-107.09,4.61-7.93,8.87-16.07,13.58-24.65,13.13,25.51,25.88,50.34,38.68,75.14,35.73,69.22,69.93,139.22,106.44,208.05,2.8,5.29,6.33,5.77,11.95,5.21-52.29-101.18-105.59-201.25-156.19-304.13Zm19.26,285.85c1.11,1.41.56,2.76.53,4.05-.22,10.37-.21,10.15,9.86,10.8,3.96.26,4.68-1.05,4.67-4.63-.11-21.61,0-43.21.02-64.82,0-1.84.13-3.73-2.74-3.63-2.75.1-2.12,1.9-2.11,3.51.05,15.78.11,31.57.1,47.35,0,2.34.38,4.83-.89,6.58-4.53-16.02-4.07-32.59-3.95-49.15.06-9.3.01-9.23-9.33-8.48-1.88.15-2.62.66-2.59,2.61.37,22.6-.43,45.21.74,67.81.09,1.82.48,2.68,2.54,2.64,2.03-.04,2.56-.94,2.56-2.74,0-3.91-.37-7.85.6-11.9Zm-61.29,3.24c.28.05.56.1.83.16.23,3.11-.6,7,.96,9.13,1.97,2.69,6.19.55,9.39,1.03,2.13.32,2.94-.56,2.86-2.78-.11-3.47,0-6.96.19-10.43.97-18.91,1.91-37.82.8-56.75-.09-1.59.66-3.78-2.5-3.73-3.36.06-2.6,2.27-2.62,4.14-.11,8.81-.17,17.61-.27,26.42-.02,1.93.18,3.95-1.65,5.8-.83-11.07-1.17-21.82-1.08-32.59.02-2.07.28-3.96-2.88-3.9-3.26.06-2.19,2.28-2.22,3.85-.14,7.22.61,14.5-1.62,21.58-.62-7.44-.95-14.88-1.33-22.31-.07-1.33.63-3.1-1.9-3.18-2.36-.07-2.18,1.36-2.18,2.9.04,22.61.05,45.22.11,67.83,0,1.17-.64,2.85,1.44,3.12,2.25.3,2.98-1.26,3.2-2.97.31-2.42.32-4.88.45-7.32Zm-3.26-178.37c-.37-.07-.73-.14-1.1-.22-3.84,6.7-7.67,13.4-11.52,20.09-1.02,1.77-1.38,3.64-1.37,5.7.09,16.44.12,32.87.16,49.31.02,8.93.01,8.79,9.06,8.97,3.17.07,3.71-1.05,3.91-3.98,1.23-18.56.86-37.14.86-55.71,0-8.06,0-16.12,0-24.18Zm-15.91,25.89c-2.23,3.47-3.82,5.9-5.35,8.37q-11.57,18.66-11.52,40.63c0,.83.12,1.68-.02,2.49-.75,4.42.81,6.51,5.49,5.66,3.7-.67,8.7,2.28,10.72-.3,1.88-2.41.66-7.3.67-11.1.03-14.85.01-29.69.01-45.74Zm-128.65,157.36c31.82-75.27,63.41-150.6,97.01-225.08-36.51,73.23-67.71,148.76-97.01,225.08Zm76.52-210.92c-34.81,69.68-65.01,141.37-93.19,213.93,30.83-71.41,61.36-142.96,93.19-213.93Zm165.91,60.02c-.31.11-.61.22-.92.32,0,14.44.04,28.88-.01,43.32-.04,10.8-.08,10.61,10.69,11.13,3.15.15,3.16-1.12,3.1-3.36-.21-8.13-.31-16.26-.52-24.39-.04-1.47-.03-3.11-.66-4.37-3.8-7.6-7.77-15.12-11.68-22.66Zm-206.55,97.6c28.63-61.62,53.64-124.84,82.27-186.46-31.48,60.35-56.65,123.51-82.27,186.46Zm232.62,18.24h.02c0-8.81,0-17.61,0-26.42,0-1.6.42-3.65-2.34-3.13-1.6.3-3.63-.23-3.6,2.79.16,17.61.16,35.22.15,52.84,0,2.52,1.09,2.74,3.34,2.84,2.76.13,2.46-1.3,2.46-3-.02-8.64,0-17.28,0-25.92Zm-183.58-100.73c5.46-7.24,56.61-117.64,56.76-122.23-20.56,39.99-38.68,81.11-56.76,122.23Zm79.74-15.99c0,9.64.06,19.27-.04,28.91-.02,2.23.45,3.31,2.94,3.4,2.59.09,2.04-1.59,2.05-2.96.03-19.11,0-38.21.05-57.32,0-2.03-.08-3.55-2.82-3.46-2.83.09-2.12,2.06-2.13,3.53-.06,9.3-.03,18.61-.03,27.91Zm-46.98,112.6h.11c0-8.98.11-17.95-.09-26.93-.04-1.83,1.84-5.25-2.35-5.17-3.54.07-2.35,3.11-2.36,4.96-.11,18.28-.09,36.57-.09,54.85,0,1.79-.4,3.78,2.43,3.96,3.25.2,2.29-2.18,2.31-3.74.08-9.31.04-18.62.04-27.93Zm94.94-110.1c0,9.14,0,18.28,0,27.42,0,1.72-.6,3.61,2.47,3.64,3.12.03,2.48-1.91,2.48-3.61.02-18.28.02-36.56,0-54.84,0-1.73.58-3.62-2.49-3.63-3.09-.01-2.48,1.89-2.48,3.61-.02,9.14,0,18.28,0,27.42Zm-25.03,118.7h.07c0-11.12,0-22.24,0-33.37,0-1.59.57-3.49-2.14-3.48-2.93.01-1.9,2.19-1.9,3.59-.01,16.1.04,32.2.11,48.3.02,5.8-.02,11.61.36,17.39.08,1.15-.28,3.94,2.25,3.63,2.19-.26,1.18-2.43,1.2-3.7.1-10.79.06-21.58.06-32.37Zm34.98-72.9c-.1-8.69-.1-8.8-11.08-8.67-7.61.09-3.28,5.97-3.42,8.81-.31,6.12-2.88,5.7,11.27,5.98,6.52.13,1.84-4.52,3.23-6.13Zm-70.05,4.11c1.32,0,2.34-.14,3.31.03,3.81.66,5.12-.65,4.99-4.69-.3-9.33-.08-9.34-9.46-9.39-1.16,0-2.33,0-3.49-.01-.86-.02-1.96.08-2.02.98-.26,3.96-1.34,8.17.16,11.84,1.06,2.61,4.54.57,6.51,1.25Zm-21.57-108.48c13.44-22.89,25.7-46.29,36.59-70.4-14.56,22.27-25.33,46.51-36.59,70.4Zm127.46,86.59c-.41.08-.82.17-1.23.25,0,7.59.03,15.19-.02,22.78-.01,1.83.57,2.81,2.53,2.79,3.55-.04,7.11-.01,11.36-.01-4.45-9.08-8.55-17.45-12.64-25.81Zm-148.71-3.91c-5.42,9.08-10.03,16.8-14.85,24.88,4.47,0,8.53-.05,12.59.02,1.68.03,2.32-.52,2.3-2.27-.08-7.04-.03-14.09-.03-22.64Zm96.91,20.68c-.56-3.53,1.96-8.37-5.18-7.94-7.72.46-7.75,0-7.8,7.82,0,1.16-.04,2.31,0,3.47.03.95-.32,2.52.75,2.61,3.76.34,7.73,1.04,11.26.15,2.26-.57.3-4.15.97-6.11Zm-31.99-1.33c-.02-7.42-.02-7.47-7.75-7.43-1.43,0-3.92-1.16-4.14,1.21-.36,3.92-.78,8.19.4,11.78.74,2.25,4.85.42,7.33,1.23.3.1.66.01.99.06,2.24.34,3.51-.31,3.21-2.88-.15-1.31-.03-2.65-.04-3.97Zm-44.82,97.46c3.12-.22,7.13,1.66,6.62-4.53-.55-6.73-.12-6.55-7.6-6.83-7.26-.27-3.42,5.07-4.11,7.9-1.24,5.06,2.92,3.03,5.09,3.47Zm186.13,12.81c-10.65-2.2-21.39-2.55-32.19-1.38,10.68,1.54,21.34,3.26,32.19,1.38Zm-138.44-17.15c.67.06,1.35.12,2.02.18,1.69-5.31,1.3-10.85.99-16.36-.04-.78-.97-1.34-1.87-1.3-1.17.05-1.12,1.07-1.12,1.83-.04,5.22-.02,10.43-.02,15.65Zm-102.46-14.05c-.02-.33-.04-.67-.05-1h-17.9c.01.33.03.67.04,1h17.91Zm-1.15,11.02c-5.72.86-11.51-3.31-17.21,0h17.21Zm-8.94-23.24h11.83c-3.95-1.93-7.89-1.58-11.83,0Zm289.61,59.51c.25-.12.5-.25.75-.37-.25-.15-.5-.4-.76-.41-.26-.01-.53.21-.8.33.26.15.53.29.81.45Z"/>
      <path class="cls-2" d="m378.56,376.29c.58,16.67,2.26,33.3,5.21,49.78.59,3.29,2.62,5.66,5.61,7.16,1.95.98,4.54,2.34,3.82,4.42-.62,1.77-3.6,1.8-5.78,1.61-10.56-.95-21.11-2.18-31.7-2.77-11.95-.67-23.92-.78-35.89-1.12-1.16-.03-2.33,0-3.49-.05-1.68-.07-3.01-1.13-3.43-2.48-.54-1.77,1.45-1.9,2.52-2.44,4.04-2.04,5.98-4.79,4.26-9.52-1.73-4.78-.93-11.39-4.59-14.27-3.67-2.88-9.88-1-14.98-1.13-8.6-.21-8.6-.15-10.44,8.13-.36,1.61-.51,3.3-1.08,4.82-1.85,4.92-.2,8.43,4.19,10.82,1.63.89,2.95,2.13,2.47,3.84-.48,1.74-2.47,1.3-3.92,1.31-7.49.02-14.98,0-22.47-.02-1.85,0-4.01.08-4.59-2.08-.47-1.75.99-3.01,2.38-3.97,3.17-2.17,4.76-5.47,5.92-8.9,2.43-7.21,4-14.67,5.02-22.2.72-5.34.35-5.78-5.05-11.01,11.58-2.29,10.34-12.81,13.44-20.49,1.84-4.56,2.68-9.52,4.11-14.26,1.33-4.44.8-8.21-3.36-10.88-1.2-.77-2.26-1.75-1.83-3.19.48-1.61,2.04-2.09,3.6-2.09,12.65,0,25.29.31,37.92,1.17,1.46.1,2.58.8,3.06,2.17.56,1.6-.68,2.43-1.74,3.23-3.26,2.47-3.63,5.41-2.34,9.23,3.22,9.52,6.28,19.11,9,28.79,1.2,4.28,3.57,6.98,7.55,8.43,3.58,1.31,4.53,2.86.68,5.06-2.56,1.46-3.16,3.32-2.29,6.24,1.98,6.63,3.37,13.43,5.4,20.05,1.51,4.93,3.89,9.24,8.87,12.01,3.01,1.67,4.21.43,5.2-1.59.91-1.88,1.42-4.09,1.56-6.2.59-8.33-.45-16.62-.99-24.91-.31-4.73-4.4-6.17-8.48-8.05,6.01-1.71,8.09-5.18,7.83-11.03-.42-9.47-.29-18.96-1.13-28.42-.35-3.86-1.78-6.99-5.33-8.97-.95-.53-2.46-.96-2.31-2.31.15-1.43,1.67-2.13,2.83-2.49,1.71-.54,3.59-.75,5.4-.72,7.15.1,14.31.64,21.45.43,4.09-.12,6.01,1.83,7.65,4.99,9.08,17.59,18.2,35.16,27.29,52.75.43.84.52,1.9,1.77,2.21,0-5.58.18-11.1-.04-16.6-.32-7.97-.93-15.92-1.42-23.88-.3-4.88-2.81-8.4-6.86-10.91-1.15-.71-2.62-1.23-1.98-2.9.52-1.36,1.91-1.67,3.33-1.69,10.16-.18,20.22,1,30.29,2.07,1.18.13,2.34.59,2.77,1.78.57,1.58-.54,2.66-1.7,3.23-4.65,2.28-5.29,6.28-5.23,10.85.12,8.49.04,16.98.03,25.47q0,7.09,6.52,10.99c-6.61,2.51-6.85,7.83-6.59,13.44.42,9.12-.78,18.3,1.02,27.37.31,1.54.41,3.8,1.82,4.04,1.74.3,3.24-1.39,4.32-2.94,5.47-7.79,7.16-16.9,8.85-25.97,1.39-7.44,1.26-7.46-3.88-13.03,13.63-4.92,11.3-18.58,15.76-28.58.99-2.23,1.17-4.81,1.98-7.13,1.87-5.36,1.95-10.13-3.68-13.4-1.13-.66-1.7-1.57-1.11-2.91.62-1.39,1.95-2.01,3.22-1.99,3.13.06,6.27.39,9.39.73,10.89,1.18,21.77,2.36,32.65,3.66,1.46.17,3.53-.23,3.95,2.15.34,1.94-1.25,2.71-2.39,3.35-3.86,2.18-4.02,5.42-2.82,8.99,3.89,11.56,7.93,23.07,11.8,34.64,1.56,4.66,5.32,6.46,9.44,7.99,2.7,1,4.56,2.12.57,4.16-2.29,1.18-3.32,3.07-2.69,5.78,2.39,10.3,5.6,20.33,10.07,29.92,2.15,4.61,5.41,8.3,9.64,11.15,1.45.98,3.68,1.72,2.74,4.04-.77,1.91-2.8,1.45-4.42,1.26-13.63-1.56-27.06-4.38-40.56-6.73-1.79-.31-3.61-.5-5.36-.95-1.25-.32-2.56-.76-2.43-2.6.11-1.51.74-2.36,2.16-2.95,6.15-2.54,6.61-3.84,5.19-10.47-1.18-5.5-3.14-10.75-4.67-16.14-.67-2.36-1.97-3.79-4.39-4.05-6.93-.74-13.87-1.44-20.81-2.12-1.61-.16-2.89.11-3.34,2.09-.88,3.86-2.14,7.65-2.87,11.54-1.09,5.75-.04,10.79,5.39,14.24,1.2.76,3.5,1.57,2.56,3.66-.79,1.77-2.89,1.42-4.47,1.24-8.89-.98-17.76-2.05-26.64-3.14-7.38-.91-14.75-1.9-22.13-2.83-3.6-.45-6.11-1.86-8.19-5.3-6.06-10.06-11.79-20.31-17.38-30.62-5.57-10.28-10.81-20.74-16.19-31.12Zm102.89-5.89c-.38.11-.77.22-1.15.34-1.79,7.13-3.55,14.26-5.38,21.37q-2.81,10.95,8.29,12.37c8.26,1.06,8.38,1.03,6.2-6.79-2.54-9.13-5.3-18.2-7.97-27.29Zm-168.76,22.74c-3.08-11.34-6.08-22.42-9.09-33.5-3.62,10.29-6.3,20.59-8.87,30.92-.5,1.99.84,2.6,2.63,2.59,4.97-.03,9.93,0,15.33,0Z"/>
      <path class="cls-2" d="m327.87,578.95c1.11.33,2.2.77,3.33.96,3.83.64,7.56.52,9.19-3.79,1.58-4.17-.65-8.06-4.98-10.03-7.27-3.3-14.6-1.97-21.88-.41-14.35,3.08-28.17,8.25-42.69,10.69-28.18,4.75-54-.25-76.76-18.26-.6-.47-1.02-1.88-2.29-.96l.12.12c.98-1.53-.58-1.89-1.25-2.58-1.25-1.3-3.07-2.27-3.85-3.79-3.81-7.39-9.04-11.75-17.92-9.72-1.36.31-2.7-.21-3.08-1.84-.36-1.55-.19-3.1,1.23-4.03,6.65-4.34,6.39-10.77,6.11-17.67-.45-11.07-.12-22.16-1.17-33.43-2.15,6.31-4.28,12.62-6.46,18.92-2.86,8.25-6.15,16.38-8.51,24.76-1.33,4.73-4.39,5.89-8.29,6.01-3.72.12-3.97-3.49-4.93-5.91-5.56-14.04-10.98-28.15-16.44-42.23l-1.42-.02c0,14.13-.11,28.26.07,42.39.05,3.95,1.7,7.4,5.83,9.04,1.32.52,3.02.98,2.98,2.88-.06,2.35-2.17,2.42-3.66,2.58-9.24.96-18.49,1.74-27.74,2.56-1.37.12-2.83,0-3.3-1.55-.38-1.24-.74-2.94.61-3.68,8.99-4.92,6.93-13.98,7.86-21.67.63-5.21,1.51-10.97-3.23-15.41-1.28-1.2-.27-2.57,1.33-2.83,4.01-.65,4.85-3.57,5.05-6.88.46-7.63.78-15.26,1.25-22.89.19-3.09-.52-5.54-3.55-6.96-1.3-.61-3.03-1.13-2.5-3.14.49-1.87,2.23-2.53,3.83-2.72,3.78-.44,7.59-.54,11.39-1.02,7.24-.92,14.55-1.25,21.82-1.86,1.34-.11,2.77-.5,3.6.9,1,1.67-.13,2.93-1.3,3.83-2.93,2.25-2.66,4.81-1.53,7.95,3.27,9.08,6.26,18.26,9.57,28.02,3.19-11,7.37-20.87,11.09-30.91.97-2.61,1.42-4.84-1.04-7.12-3.01-2.79-.95-4.64,1.94-4.88,10.93-.89,21.89-1.43,32.84-2.1,1.39-.09,2.79.05,3.35,1.52.61,1.6-.78,2.4-1.78,3.22-3.1,2.54-4.05,5.85-3.97,9.74.14,7.49-.05,14.98.15,22.47.04,1.68-1.44,4.61,1.42,4.94,2.92.34,5.53-1.35,6.26-4.54.74-3.22.89-6.58,1.7-9.78,4.06-16.09,15.25-25.21,31.07-25.52,15.42-.3,26.42,7.99,30.89,24.18,3.78,13.7,3.69,27.54-1.47,40.98-4.75,12.38-15.71,19.71-28.83,19.75-12.86.04-23.1-7.11-28.32-19.56-2-4.77-3.35-9.66-3.9-14.79-.25-2.34-.69-4.57-2.83-6.11-1.42-1.02-2.87-.95-4.25-.38-1.4.58-1.54,2.09-1.43,3.39,1.47,17,5.08,33.33,15.77,47.23,9.25,12.03,22,18.28,36.55,21.1,17.31,3.36,33.9-1.22,50.43-5.35,15.19-3.8,30.38-5.12,45.74-1.57,2.87.66,5.69,1.82,8.3,3.19,3.33,1.76,5.8,4.26,5.89,8.53.1,4.49-1.82,7.72-5.52,9.87-7.49,4.34-21.43,4.41-27.63-3.07.37-.26.75-.51,1.12-.77Zm-81.09-98.16c-.66-3.61-1.13-7.91-2.33-12.01-.75-2.56-1.96-5.36-5.57-5.49-3.54-.13-4.97,2.27-6.12,4.9-2.7,6.19-4.13,12.9-2.68,19.35,1.02,4.54,1.15,8.01-.37,12.63-2.65,8.02.51,16.01,4.22,23.3,2.06,4.05,6.39,4.2,9.3.64,4.55-5.59,6.74-22.66.23-28.9-.91-.87-2.22-1.25-.49-2.79,3.25-2.89,3.32-7.02,3.82-11.63Z"/>
      <path class="cls-2" d="m184.29,393.53c-5.64,2.71-5.94,6.46-4.36,11.2,1.61,4.84,2.64,9.86,4.06,14.76,1.99,6.86,5.17,12.63,13.47,13.33,1.98-3.89,1.72-8.47,2.08-12.8.54-6.61.21-13.3.17-19.95-.02-3.82-.8-7.26-4.86-9.02-.89-.39-3.17-1.61-.7-2.6,6.03-2.39,5.01-7.93,5.25-12.26.46-8.08.9-16.23-.45-24.35-.55-3.28-1.47-5.93-4.15-8.07-2.73-2.18-2.05-4.17,1.46-5.43,4.83-1.72,9.89-.93,14.83-1.37,10.91-.97,21.93-2.01,32.84-.41,9.52,1.4,17.29,5.69,20.05,15.91,2.69,9.96-.33,18.25-7.57,25.21-1.76,1.69-3.71,3.18-5.95,5.09,2.43.99,4.54,1.74,6.56,2.69,17.07,7.98,13.83,31.27,3.07,39.93-8.23,6.62-17.87,9.21-28.07,9.92-23.34,1.63-46.74,2.44-70.02,4.92-1.32.14-2.66.14-3.99.13-1.45-.01-3,.25-3.56-1.8-.47-1.76.72-2.28,1.77-3.06,3.53-2.62,5-5.95,3.68-10.37-1.18-3.94-2.04-7.98-3.23-11.92-.47-1.56-1.24-2.98-3.52-2.71-5.93.7-11.88,1.25-17.83,1.71-2.14.16-3.62,1.12-4.01,3.06-1.03,5.02-2.37,9.99-2.52,15.15-.11,3.64,1.81,5.86,4.92,7.34,1.41.68,3.54.99,2.89,3.29-.45,1.6-2.06,2.07-3.57,2.26-7.88.98-15.77,1.97-23.67,2.84-2.9.32-4.43-1.06-2.74-3.81,5.71-9.29,6.92-19.86,8.9-30.22.82-4.28.85-8.29-3.74-10.8-3.05-1.67-1.67-3.56.61-3.9,5.5-.81,7.09-4.9,8.42-9.16,3.33-10.68,6.47-21.43,9.66-32.15,1.07-3.59-1.23-5.53-3.71-7.35-1.22-.89-2.58-1.91-1.99-3.56.47-1.31,1.94-1.69,3.33-1.79,13.4-1.01,26.79-2.04,40.19-3.02,1.63-.12,3.67-.42,4.33,1.52.74,2.19-1.2,3.16-2.73,4.17-3.27,2.16-4.5,4.73-3.21,8.87,2.78,8.96,4.98,18.1,7.49,27.15,1.44,5.21,3.16,10.27,10.12,11.42Zm40.5,11.73c.13,0,.26,0,.39,0,0,4.82,0,9.63,0,14.45,0,4.22,1.96,5.21,5.99,4.3,14.82-3.33,14.77-23.88,7.13-31.77-3.07-3.17-6.62-4.01-10.83-3.57-2.15.22-2.77,1.07-2.71,3.12.12,4.48.04,8.97.04,13.46Zm.02-43.25s.06,0,.09,0c0,4.15.11,8.3-.03,12.44-.11,3.26,1.08,4.5,4.42,3.97,6.43-1.02,11.23-5.46,12.37-11.78,1.43-7.89-1.37-16.07-6.58-18.99-.98-.55-2.13-.94-3.24-1.12-6.38-1.03-7.02-.45-7.03,6.03,0,3.15,0,6.3,0,9.45Zm-81.26,4.15c-1.21.23-1.4,1.02-1.6,1.85-1.64,6.71-3.24,13.43-4.96,20.11-2.97,11.47-3,11.46,9.08,11.19,1.16-.03,2.33-.05,3.49-.04,2.33.02,3.26-.66,2.47-3.29-2.95-9.93-5.68-19.92-8.48-29.82Z"/>
      <path class="cls-2" d="m89.61,376.88c3.04-6.62,3.1-12.27,1.3-17.96-1.16-3.67-3.28-6.68-7.25-7.38-4.29-.76-7.82,1.23-10.44,4.48-6.31,7.83-8.99,17.12-10.2,26.91-.35,2.8-.64,5.62-.67,8.44-.07,6.51,2.61,11.51,9.31,14.61-5.06,2.61-9.18,5.48-9.58,10.97-.6,8.21.17,16.25,5.22,23.21,3.81,5.26,9.33,6.25,15.15,4.88,6.78-1.6,9.53-7.16,11.39-13.24.29-.94.24-1.97.44-2.94,1.61-7.74,1.95-8,10-8.46,1.88-.11,3.13.2,3.44,2.48,2.66,19.23-15.07,40.78-34.4,42.55-24.34,2.22-40.83-11.26-47.3-32.79-1.14-3.79-2.38-7.63-2.83-11.53-.54-4.68-2.32-8.24-6.48-10.42-2.35-1.23-2.7-2.32-.14-3.62,6.27-3.18,8.13-8.9,9.55-15.28,3.28-14.79,9.4-28.23,20.76-38.71,9.42-8.69,20.64-13.34,33.39-14.75,8.8-.97,17.53-1.23,26.32,0,3.01.42,4.07.97,3.57,4.59-.96,6.89-1.25,13.92-1.16,20.88.07,5.79-2.45,9.09-7.72,10.54-3.46.95-7.01,1.55-11.66,2.56Z"/>
      <path class="cls-2" d="m501.93,559.86c6.37-.44,12.33-2.22,17.85-5.47,2.9-1.71,6.14-2.64,9.47-2.69,3.28-.06,6.37.92,7.77,4.3,1.4,3.36-.55,5.84-2.89,7.82-5.22,4.41-11.53,6.33-18.14,7.39-15.35,2.47-30.5-.12-45.52-2.54-27.1-4.37-54.07-9.49-81.12-14.16-2.9-.5-5.97-.07-9.07.44,36.89,6.99,73.77,13.99,110.66,20.98-.05.33-.11.66-.16.99-9.05,0-18.13.5-27.14-.1-21.33-1.41-42.31-5.35-63.24-9.54-13.1-2.62-26.19-5.37-39.37-7.51-10.44-1.69-20.9-3.27-31.54-3.68-16.64-.64-33.25-.41-49.87.17-10.78.37-21.54,1.22-32.23,2.71-9.15,1.27-17.38-.38-24.3-7.13,1.41-1.38,3.03-1.53,4.64-1.56,29.75-.59,59.41-4.09,89.21-3.06,21.92.76,43.82,1.94,65.72,3.46,25.48,1.76,50.78,6.31,76.43,5.44,9.46-.32,18.78-1.66,27.4-5.94,1.62-.8,3.19-1.76,4.64-2.84,7.43-5.54,6.93-12.69-1.15-16.92,3-4.14,8.68-5.7,13.36-3.66,4.88,2.13,7.26,7.18,5.82,12.85-1.52,5.98-5.62,10.04-10.62,13.25-5.23,3.35-11.08,5.35-17.58,7.08.9.63,1.29,1.13,1.61,1.09,14.19-1.96,30.26-8.78,34.83-23.89,2.26-7.45.94-14.08-4.21-19.87-5.59-6.28-12.74-7.17-20.47-5.54-2.83.6-5.48,2.02-8.47,2.09-.48-2.11.89-2.95,2-3.85,9.23-7.51,25.21-8.06,34.92-1.22,8.83,6.22,11.4,20.57,6,29.91-6,10.37-15.13,16.3-25.96,20.26-.5.28-1,.56-1.5.83.74.04,1.48.07,2.21.11Z"/>
      <path class="cls-2" d="m293.6,489.56c-.03,11.27.17,22.48,1.2,33.67.33,3.52,2.6,5.69,5.68,6.88,1.49.58,2.42,1.21,2.01,2.79-.36,1.4-1.66,1.38-2.86,1.39-8.48.03-16.96.08-25.44.09-1.1,0-2.42.27-2.86-1.3-.43-1.53.83-2.03,1.7-2.69,2.53-1.94,3.7-4.58,4.07-7.63.91-7.45.61-14.9-.13-22.35-.27-2.68-1.37-4.74-5.05-4.76,5.58-3.72,5.21-8.88,4.98-14.03-.17-3.99,0-8-.32-11.97-.33-4.07-.34-8.52-5.27-10.27-1.12-.4-1.65-1.07-1.58-2.19.1-1.44,1.15-2.05,2.38-2.07,8.63-.13,17.27-.22,25.9-.25,1.65,0,2.27,1.16,3.04,2.65,6.46,12.46,13.12,24.83,19.78,37.19.49.9.67,2.23,2.75,2.85-1.46-10.89.04-21.44-1.79-31.87-.45-2.57-1.05-4.82-4.07-5.54-1.46-.35-1.95-1.54-1.7-3.12.3-1.87,1.72-1.93,2.98-1.91,6.65.09,13.3.22,19.94.53,1.28.06,3.16-.12,3.66,1.81.4,1.56-.73,2.31-1.74,3.25-3.01,2.76-2.74,6.67-2.94,10.22-.32,5.64-.14,11.31-.14,16.96,0,.83-.23,2.03.22,2.42,4.78,4.24,1.36,8.01.32,12.6-1.65,7.34-1,15.21-.17,22.83.22,2.08.98,4.18,2.93,5.56.79.56,1.68,1.4,1.24,2.48-.48,1.16-1.62,1.52-2.88,1.53-5.99.06-11.96-.17-17.92-.86-2.08-.24-2.67-1.67-3.51-3.07-7.92-13.16-15.78-26.35-22.74-40.06-.31-.62-.28-1.69-1.64-1.77Z"/>
      <path class="cls-2" d="m398.27,497.07c7.34.5,10.18-2.52,12.4-7.2,3.1-6.51,6.88-12.69,10.41-19.09-6.83-2.11-11.87-.29-16.38,4.68-3.31,3.65-5.78,8.16-10.27,10.74-1.52.87-2.92,1.66-4.59.72-1.63-.92-1.31-2.58-1.2-4.03.53-7.3,1.19-14.58,1-21.92-.07-2.56,1.23-3.93,4.05-3.69,13.38,1.15,26.78,2.21,40.16,3.34,4.96.42,9.9,1.04,14.86,1.43,4.16.32,4.72,2.3,2.82,5.57-5.56,9.54-10.4,19.45-15.27,29.35-.98,1.99-1.73,3.36.9,4.73,1.93,1.01,2.09,2.97-.38,3.42-4.57.83-6.44,4.1-8.37,7.69-2.74,5.09-5.76,10.04-8.62,15.06-1.18,2.07-1.03,3.26,1.87,3.26,4.15,0,8.31.59,12.45.51,6.42-.13,8.12-5.33,10.28-10.04,1.13-2.47-.26-6.27,2.65-7.41,2.27-.9,5.25.21,7.86-.09,5.06-.57,6.43,1.15,5.85,6.33-.84,7.57-1.01,15.28.18,22.88.57,3.64-.92,4.4-4.09,3.99-9.36-1.21-18.72-2.4-28.09-3.48-11.2-1.28-22.41-2.43-33.61-3.65-1.97-.22-3.93-.63-5.9-.81-1.72-.16-3.59-.58-4.14-2.14-.55-1.55,1.36-2.36,2.31-3.45,6.05-7,8.41-16.01,12.85-23.9,2.23-3.97,4.3-8.16-1.98-12.82Z"/>
      <path class="cls-2" d="m67.88,561.23c-2.34-2.83-4.71-3.14-6.7-3.96-9.79-4.01-17.04-10.87-21.82-20.12-7.35-14.21,3.22-31.53,19.81-32.87,10.08-.82,17.87,2.41,24.11,10.45-4.11-1.26-7.51-2.77-11.05-3.3-14.84-2.19-25.57,9.78-22.26,24.59,2.9,13,19.05,25.18,32.56,24.1-4.32-1.86-8.28-3.36-12.04-5.24-4.55-2.26-8.21-5.55-10.6-10.19-3.23-6.28-2.45-12.31,2.26-16.25,4.48-3.75,9.61-3.22,15.92,1.87-1.79,1.99-4.94,2.38-5.95,5.32-1.75,5.07.42,10.3,6.2,13.68,8.71,5.11,18.43,6.37,28.22,6.7,14.16.48,28.12-2.04,42.17-3.32,10.08-.92,20.05-2.88,30.22-3.06,1.9-.03,3.41.16,5.59,1.56-6.8,2.88-13.46,2.83-19.82,3.83-22.69,3.57-45.1,8.6-67.68,12.72-13.52,2.47-27.15,4.81-40.97,4.36-8.54-.28-16.67-2.56-23.6-7.92-2.1-1.63-4.36-3.47-3.33-6.63,1.07-3.27,3.45-5.14,6.95-5.54,3.41-.39,6.48.44,9.59,1.88,6.75,3.11,13.69,5.8,22.22,7.33Zm15.83-.79c-.1-.09-.21-.26-.31-.26-.1,0-.2.18-.3.28.15.09.31.19.46.28.05-.1.1-.2.15-.3Z"/>
      <path class="cls-2" d="m360.7,456.04c5.47.4,10.94.8,16.42,1.18,1.33.09,2.78,0,3.41,1.5.59,1.42.01,2.63-1.1,3.52-3.36,2.68-3.88,6.35-3.82,10.31.08,5.32.05,10.65.05,15.97,0,3.77.33,7.3,4.48,9.13,1.54.68,1.86,1.92-.13,2.73-2.61,1.06-3.9,3.26-3.98,5.8-.22,7.61-.82,15.25.63,22.82.44,2.31,1.83,3.84,3.77,4.98,1.34.79,2.73,1.78,1.97,3.51-.6,1.37-2.08,1.28-3.49,1.16-9.93-.84-19.87-1.61-29.8-2.4-1.15-.09-2.51,0-2.62-1.6-.08-1.15.21-2.11,1.51-2.79,3.88-2.03,4.8-5.54,4.65-9.66-.18-5.15-.26-10.32-.02-15.47.18-3.78-3.66-5.92-3.77-8.59-.1-2.3,3.89-4.4,3.77-8-.23-6.81-.09-13.64-.27-20.46-.09-3.38-1.12-6.51-3.79-8.87-.99-.87-2.34-1.73-1.78-3.25.67-1.85,2.51-1.29,3.91-1.33,3.32-.09,6.65-.03,9.98-.03,0-.06,0-.12.01-.18Z"/>
      <path class="cls-2" d="m191.79,557.16c.56,2.5-1.5,2.62-2.94,2.93-27.08,6-54.06,12.45-81.75,15.29-10.73,1.1-21.43,2.13-32.3,1.52,5.13-2.53,10.74-3.45,16.23-4.62,17.73-3.76,35.49-7.4,53.28-10.87,12.96-2.53,26-4.63,38.96-7.11,3.63-.69,5.65,2.33,8.63,2.97,0,0-.12-.12-.12-.12Z"/>
      <path class="cls-2" d="m20.52,557.25c-7.36-.6-13.32-2.64-17.62-8.01-3.63-4.54-3.81-11.11-.74-15.85,3.07-4.74,11.34-7.9,17.12-6.89,7.7,1.35,12.27,6.7,16.61,12.41,1.9,2.5,3.69,5.07,5.75,7.91-2.64.02-4.18-1.69-5.98-2.83-4.02-2.55-7.74-5.6-12.88-5.91-4.08-.24-7.92,0-9.67,4.21-1.74,4.19-.5,8.11,2.77,11.26,1.17,1.12,2.54,2.04,4.64,3.71Z"/>
      <path class="cls-2" d="m548.3,557.22c2.19-2.78,5.03-3.75,6.32-6.49,1.49-3.17,2.77-6.24.3-9.25-2.55-3.11-6.01-4.81-10.12-3.91-3.57.77-6.81,2.41-9.85,4.56-2.46,1.74-4.74,4.15-8.78,4.06,3.95-3.6,5.93-8,8.83-11.75,5.87-7.57,14.56-10,23.41-6.48,10.14,4.04,12.18,16.94,3.75,23.88-3.78,3.12-8.14,4.89-13.86,5.38Z"/>
      <path class="cls-2" d="m326.74,579.72c-.43-.48-1.61-.85-.61-1.63.67-.52,1.34.18,1.73.86-.37.26-.75.51-1.12.77Z"/>
      <path class="cls-1" d="m501.93,559.86c-.74-.04-1.48-.07-2.21-.11.5-.28,1-.56,1.5-.83.24.31.48.63.71.94Z"/>
      <path class="cls-1" d="m83.71,560.44c-.05.1-.1.2-.14.3l-.46-.28c.1-.1.2-.28.3-.28.1,0,.21.17.31.26Z"/>
    </g>
  </g>
</svg>