<?xml version="1.0" encoding="UTF-8"?>
<svg id="Layer_2" data-name="Layer 2" xmlns="http://www.w3.org/2000/svg" viewBox="0 0 969.66 419.79">
  <defs>
    <style>
      .cls-1 {
        fill: #02934d;
      }
    </style>
  </defs>
  <g id="Layer_1-2" data-name="Layer 1">
    <path class="cls-1" d="M203.03,150.96c-2.82-2.87,2.21-24.46,3.22-29.41,1.36-6.67,3.91-5.32.08-14.06-6.91-15.75-27.12-19.64-39.52-7.38-4.61,4.56-4.54,9.03-7.09,13-.8,1.25-3.4,1.66-3.66,2.65-.77,3,4.51,2.42,4.88,3.72,2.43,8.47-4.5,19.88,5.31,28.06l9,4.77c-8.56,2.47-17.36,6.01-25.22,10.18-8.42,4.47-15.61,11.11-23.97,15.01-.05-1.65.32-3.58-.25-5.14-1.11-3-5.52-8.81-6.86-11.38-1.25-2.39-.29-7.98-5.69-8.42-2.91-.24-4.57,3.99-6.26.22l-23.87-55.22c-.19-2.23,4.18-7.42,5.76-9.35,4.32-5.27,19.89-19.16,21.87-23.74,2.12-4.91-2.75-17.69-8.41-18.7-2.34-.41-4.86,1.18-5.07,1.03-1.11-.79-1.78-9.66-9.78-8.97l-61.35,23.66c-11.63,4.27-2.21,27.2,7.78,25.86l61.35-23.94c9.99-6.29,2.15-13.3,3.18-14.21,7.03-3.33,11,10.06,8.99,14.35l-24.59,27.01c-5.94,7.9,3.01,19.38,5.7,27.87.77,2.42.12,5.46,1.13,8.46,1.61,4.8,12.34,28.89,10.95,31.2-.25.41-2.76,1.02-3.97,2.6-3.37,4.4-3.67,14.33-2.91,19.69.82,5.77,5.53,22.62,7.72,28.26,2.97,7.68,9.59,18.52,18.27,20.16,3.17.6,9.16-1.33,9.79-.88s5.85,14.13,5.79,14.93c-.1,1.17-2.96,2.68-3.77,4.28-5.67,11.19-7.14,21.36,5.39,28.01,3.74,1.99,5.05-1.85,4.75,4.86-1.47,33.53-4.98,67.23-7.23,100.73-.31,4.53,1.12,16.52-1.09,19.29-11.09,4.4-24.9,7.55-29.66,19.74l-85.11-.03c-9.39-.21-17.99-7.92-18.61-17.37V18.57C.89,8.35,9.52.45,19.81,0h224.49c10.77.16,20.4,8.93,21.01,19.79l-.04,381.34c-4.29,17.42-5.43,9.92-14.8,5.19-3.68-1.86-16.84-4.87-17.34-7.72-.26-1.48,1.18-4.41.99-7-3.65-48.55-14.85-98.74-19.21-147.48,14.34-27.14,39.75-75.44-2.47-91.16-2.12-.79-9.07-1.65-9.4-1.99Z"/>
    <polygon class="cls-1" points="398.46 8.44 447.06 334.59 495.66 8.44 554.46 8.44 491.38 412.57 396.06 412.52 334.86 8.44 398.46 8.44"/>
    <path class="cls-1" d="M646.86,261.44v151.08h-63.6V8.44c34.4,1.67,70.88-2.22,105.05-.05,50.46,3.2,80.04,34.49,83.4,84.53,2.05,30.58,2.91,91.53-8.23,118.97-20.14,49.58-69.96,50.74-116.62,49.54ZM646.86,202.69h39c1.53,0,9.6-3.99,11.43-5.37,4.86-3.65,7.74-8.95,9.22-14.77,3.82-15.07,2.97-69.83,1.6-87.22-.75-9.48-3.7-19.71-12.39-24.79-1.74-1.01-10.91-4.55-12.25-4.55h-36.6v136.69Z"/>
    <polygon class="cls-1" points="969.66 8.44 969.66 66 865.26 66 865.26 188.3 946.86 188.3 946.86 245.85 865.26 245.85 865.26 412.52 801.66 412.52 801.66 8.44 969.66 8.44"/>
    <path class="cls-1" d="M168.06,419.71c3.87-7.51-3.51-21.25,6.08-23.51,1.26-14.28.36-28.78,1.12-43.05.08-1.54-.97-5.09,1.79-4.19,2.02.66,13.51,34.39,15.63,39.56,1.23,3,3.65,5.08,4.57,8.63,1.73,6.69.76,15.49,2.02,22.56h-31.2Z"/>
    <path class="cls-1" d="M176.46,301.01c3.63-.57,1.93.88,2.43,2.91,4.45,17.92,5.96,37.28,10.78,55.23-2.16,2.54-1.85.37-2.52-1.1-1.44-3.12-10.69-25.04-10.69-26.47v-30.58Z"/>
    <path class="cls-1" d="M134.47,221.88c2.62,1.02,10.08-2.68,10.72.66-2.22,2.82.33,18.59-2.93,18.5-1.72-.05-7.31-16.27-7.79-19.15Z"/>
  </g>
</svg>