<?xml version="1.0" encoding="UTF-8"?>
<svg id="Layer_2" data-name="Layer 2" xmlns="http://www.w3.org/2000/svg" viewBox="0 0 1749.54 412.87">
  <g id="Layer_1-2" data-name="Layer 1">
    <path d="M363.19,363.1l-3.33-1.74c-5.17,2.31-7.92,7.45-12.49,10.44-71.99,47.14-227.35,49.64-295.56-4.64-61.44-48.9-68.73-150.19-19.25-209.69,57.42-69.06,218.17-65.59,293.33-31.35,12.69,5.78,22.96,13.72,34.86,20.73.47.21,2.44-3.83,2.44-4.07V0h128.49l2.46,2.45v394.93l-2.46,2.45h-126.03l-2.46-2.45v-34.27ZM154.59,204.9c-27.49,29.53-26.5,75.36,4.79,101.94,43.99,37.38,153.02,31.75,189.77-14.87,30.16-38.25,7.33-79.94-32-98.38-41.11-19.27-129.66-24.03-162.56,11.31Z"/>
    <path d="M1419.92,251.98c25.52,23.01,25.31,81.71,5.95,108.31-26.97,37.08-82.09,43.71-123.98,47.7-70.19,6.68-196.71,10.66-257.58-27.16-26.82-16.66-41.13-42.28-40.95-73.86,4.19-4.96,114.55.02,129.9-1.77,6.67.97,5.83,8.61,8.22,13.02,3.88,7.14,9.9,13.37,17.34,16.98,30.12,14.59,103.04,12.76,133.92.02,16.67-6.87,12.58-32.11-5.67-38.15-28.51-9.44-76.76-5.03-108.02-6.53-67.46-3.22-183.75-11.55-172.48-106.83,8.8-74.4,139.67-77.1,195.4-77.71,59.02-.65,197.32-1.04,222.19,65.82,2.2,5.92,8.29,26.18.15,28.57l-125.71.34-3.29-1.61c-6.14-13.57-16.34-19.76-30.21-23.73-21.35-6.11-85.81-6.89-106.54-.06-15.75,5.19-26.36,19.58-10.3,31.7,14.87,11.22,54.61,9.28,73.41,10.04,52.66,2.13,157.76-1.58,198.25,34.92Z"/>
    <path d="M861.59,407.98c-2.04-.39-17.77-8.11-19.67-9.77-5.9-5.16-13.74-26.25-17.96-26.23-3.96.02-8.77,7.63-11.25,9.29-49.84,33.28-105.27,33.75-163.99,30.05-68.88-4.34-116.26-47.87-105.1-119.63,9.02-58,96.42-66.9,142.85-71.36,30.06-2.89,60.22-4.76,90.17-8.02,9.22-1,26.17-.26,33.81-2.19,13.79-3.49,18.25-23.47,4.48-29.78-3.62-1.66-29.18-8.99-31.91-8.99h-237.33l-2.46-2.45v-63.64l5.65-2.53c84.94,4.02,174.35-5.05,258.76.01,55.88,3.36,131.92,18.25,136.67,85.68,2.98,42.24-2.64,87.7.27,130.28,6.59,12.92,21.48,3.52,30.76,11.76v75.07l-2.46,2.45h-111.3ZM812.71,307.85c5.54-7.94,13.31-28.21,10.18-37.54l-1.29-1.96c-4.94-3.46-32.95,4.57-40.39,5.64-18.19,2.62-36.28,4.93-54.25,7.93-18.87,3.15-67.78,4.35-67.34,30.42.62,36.9,51.37,35.91,77.62,33.69,23.14-1.95,61.92-18.78,75.45-38.18Z"/>
    <path d="M1749.54,192.57h-69.56c-.54,0-2.49,2.16-4.09,1.63v208.89h-129.3v-208.89c-2.09.89-4.85-1.63-5.73-1.63h-52.38l-2.46-2.45v-73.44c0-.37,5.11-4.08,5.73-4.08h52.38l2.46-2.45v-48.96c0-1.24,8.56-20.11,10.09-22.58,17.75-28.57,61.39-34.07,92.14-35.42,25.66-1.13,70.71-2.87,95.08-.02,2.38.28,4.21.2,5.65,2.53v66.91l-2.46,2.45h-58.92c-.98,0-6.39,2.93-7.44,4.01-3.89,3.96-7.42,28.4-2.38,33.53h68.74l2.46,2.45v77.52Z"/>
  </g>
</svg>