<svg xmlns="http://www.w3.org/2000/svg" xmlns:xlink="http://www.w3.org/1999/xlink" width="1919" zoomAndPan="magnify" viewBox="0 0 1439.25 399.74999" height="533" preserveAspectRatio="xMidYMid meet" version="1.0"><defs><g/><clipPath id="6e3f68e843"><path d="M 0.0742188 68.609375 L 397.328125 68.609375 L 397.328125 345.9375 L 0.0742188 345.9375 Z M 0.0742188 68.609375 " clip-rule="nonzero"/></clipPath><clipPath id="18ab08fc9e"><rect x="0" width="932" y="0" height="212"/></clipPath><clipPath id="744ef1cd38"><rect x="0" width="380" y="0" height="128"/></clipPath></defs><g clip-path="url(#6e3f68e843)"><path fill="#ffffff" d="M 180.632812 69.441406 C 329.566406 56.773438 439.191406 204.320312 382.367188 342.710938 C 357.367188 347.324219 340.699219 342.777344 318.875 332.246094 C 290.929688 318.757812 275.59375 298.085938 251.480469 279.648438 C 237.628906 288.246094 227.066406 301.097656 213.546875 310.257812 C 204.542969 316.367188 160.800781 341.5625 152.628906 343.230469 C 134.871094 346.867188 41.042969 346.316406 21.117188 343.859375 C 18.414062 343.527344 16.542969 343.996094 14.5 341.535156 C 13.121094 339.875 6.015625 316.976562 5.09375 312.9375 C -21.546875 196.207031 60.832031 79.628906 180.632812 69.441406 Z M 65.472656 248.273438 C 78.15625 240.421875 105.136719 236.578125 116.070312 228.429688 C 128.796875 218.949219 146.78125 189.105469 159.855469 176.089844 C 164.089844 171.878906 197.046875 144.550781 199.765625 145.019531 C 211.882812 158.296875 230.097656 168.066406 241.441406 181.664062 C 251.011719 193.132812 257.660156 211.109375 268.179688 221.988281 C 286.054688 240.472656 314.984375 256.285156 338.742188 265.4375 C 345.660156 272.164062 372.667969 307.3125 379.003906 308.054688 C 388.050781 309.113281 388.308594 294.378906 388.949219 286.703125 C 396.191406 200.324219 345.003906 115.261719 262.058594 87.28125 C 128.394531 42.175781 -2.433594 147.347656 8.980469 286.699219 C 9.59375 294.226562 9.9375 311.585938 20.117188 306.851562 C 29.617188 302.433594 56.027344 258.160156 65.46875 248.273438 Z M 342.015625 305.761719 C 330.195312 298.566406 314.566406 288.851562 305.078125 278.976562 C 296.808594 270.367188 292.15625 257.902344 284.808594 250.0625 C 276.882812 241.601562 262.34375 235.820312 254.847656 226.371094 C 248.382812 218.222656 245.59375 205.945312 239.195312 197.316406 C 234.785156 191.367188 210.355469 166.652344 204.589844 162.625 C 202.691406 161.300781 202.339844 159.53125 198.984375 160.4375 C 196.707031 166.023438 197.671875 172.976562 195.515625 178.214844 C 189.53125 192.753906 169.507812 219.136719 160.578125 234.925781 C 156.777344 241.644531 151.730469 249.199219 149.804688 256.546875 C 171.484375 243.445312 183.511719 221.101562 200.113281 202.917969 L 203.351562 208.53125 L 210.113281 247.589844 L 222.421875 207.375 L 236.871094 228.578125 C 225.839844 248.472656 221.425781 267.203125 221.339844 290.078125 L 249.410156 249.703125 C 251.5625 249.5625 268.871094 258.839844 271.617188 261.015625 C 280.734375 268.238281 285.785156 282.601562 295.289062 288.757812 C 301.597656 292.847656 327.320312 304.039062 335.25 306.933594 C 337.351562 307.699219 342.523438 309.878906 342.019531 305.753906 Z M 147.546875 225.277344 L 113.988281 248.703125 L 64.835938 296.769531 C 78.34375 291.105469 101.96875 283.601562 112.933594 274.472656 C 115.421875 272.40625 149.726562 227.351562 147.550781 225.277344 Z M 147.546875 225.277344 " fill-opacity="1" fill-rule="nonzero"/></g><path fill="#ffffff" d="M 194.492188 343.738281 C 202.484375 335.574219 214.390625 332.210938 224.289062 325.472656 C 233.523438 319.191406 242.105469 309.9375 251.5 303.542969 C 256.359375 303.613281 263.285156 336.503906 266.058594 339.261719 C 271.386719 344.566406 271.273438 327.933594 273.925781 328.027344 C 282.535156 332.226562 294.410156 335.261719 299.558594 343.738281 Z M 194.492188 343.738281 " fill-opacity="1" fill-rule="nonzero"/><g transform="matrix(1, 0, 0, 1, 448, 77)"><g clip-path="url(#18ab08fc9e)"><g fill="#ffffff" fill-opacity="1"><g transform="translate(0.777274, 169.538375)"><g><path d="M 12.46875 -145.90625 L 117.84375 -145.90625 C 132.675781 -145.90625 146.050781 -145.003906 157.96875 -143.203125 C 169.875 -141.398438 179.847656 -138.769531 187.890625 -135.3125 C 195.785156 -131.84375 202.578125 -127.960938 208.265625 -123.671875 C 214.078125 -119.367188 218.441406 -114.585938 221.359375 -109.328125 C 224.398438 -103.921875 226.613281 -98.65625 228 -93.53125 C 229.25 -88.40625 229.875 -82.863281 229.875 -76.90625 L 229.875 -71.078125 C 229.875 -64.148438 229.039062 -57.640625 227.375 -51.546875 C 225.71875 -45.453125 222.328125 -39.144531 217.203125 -32.625 C 212.210938 -26.113281 205.695312 -20.570312 197.65625 -16 C 189.757812 -11.425781 178.953125 -7.617188 165.234375 -4.578125 C 151.515625 -1.660156 135.789062 -0.203125 118.0625 -0.203125 L 12.46875 -0.203125 Z M 62.140625 -111.40625 L 62.140625 -35.125 L 113.890625 -35.125 C 156.429688 -35.125 177.703125 -47.664062 177.703125 -72.75 L 177.703125 -74 C 177.703125 -98.9375 156.429688 -111.40625 113.890625 -111.40625 Z M 62.140625 -111.40625 "/></g></g></g><g fill="#ffffff" fill-opacity="1"><g transform="translate(226.283218, 169.538375)"><g><path d="M 141.953125 -1.875 L 81.0625 -1.875 L -0.421875 -145.28125 L 55.078125 -145.28125 L 112.859375 -39.90625 L 166.90625 -145.28125 L 217.8125 -145.28125 Z M 141.953125 -1.875 "/></g></g></g><g fill="#ffffff" fill-opacity="1"><g transform="translate(443.89129, 169.538375)"><g><path d="M 12.46875 0 L 12.46875 -145.28125 L 82.921875 -145.28125 L 137.796875 -54.875 L 192.671875 -145.28125 L 260.84375 -145.28125 L 260.84375 0 L 211.796875 0 L 211.796875 -100.59375 L 149.234375 0 L 122.625 0 L 60.28125 -100.59375 L 60.28125 0 Z M 12.46875 0 "/></g></g></g><g fill="#ffffff" fill-opacity="1"><g transform="translate(717.200381, 169.538375)"><g><path d="M 99.765625 2.703125 C 83.972656 2.703125 70.1875 1.453125 58.40625 -1.046875 C 46.625 -3.535156 37.546875 -6.582031 31.171875 -10.1875 C 24.796875 -13.644531 19.738281 -17.867188 16 -22.859375 C 12.125 -27.847656 9.703125 -32.421875 8.734375 -36.578125 C 7.617188 -40.597656 7.0625 -44.894531 7.0625 -49.46875 L 7.0625 -51.546875 L 58.8125 -51.546875 C 59.375 -43.785156 62.835938 -38 69.203125 -34.1875 C 75.578125 -30.375 86.316406 -28.46875 101.421875 -28.46875 L 112.859375 -28.46875 C 117.847656 -28.46875 121.726562 -28.570312 124.5 -28.78125 C 127.269531 -28.988281 130.316406 -29.300781 133.640625 -29.71875 C 140.148438 -30.550781 144.929688 -31.726562 147.984375 -33.25 C 150.890625 -34.914062 152.828125 -36.582031 153.796875 -38.25 C 154.910156 -39.769531 155.46875 -41.640625 155.46875 -43.859375 C 155.46875 -47.046875 154.566406 -49.539062 152.765625 -51.34375 C 151.097656 -53.144531 147.148438 -54.738281 140.921875 -56.125 C 134.679688 -57.507812 125.671875 -58.335938 113.890625 -58.609375 L 98.3125 -58.8125 L 86.46875 -59.234375 C 34.914062 -60.484375 9.140625 -74.6875 9.140625 -101.84375 L 9.140625 -103.5 C 9.140625 -108.21875 9.765625 -112.582031 11.015625 -116.59375 C 12.398438 -120.476562 14.960938 -124.429688 18.703125 -128.453125 C 22.585938 -132.460938 27.644531 -135.785156 33.875 -138.421875 C 39.976562 -141.191406 48.289062 -143.476562 58.8125 -145.28125 C 69.34375 -147.082031 81.609375 -147.984375 95.609375 -147.984375 L 110.15625 -147.984375 C 124.707031 -147.984375 137.523438 -147.015625 148.609375 -145.078125 C 159.691406 -143.273438 168.488281 -140.988281 175 -138.21875 C 181.65625 -135.300781 187.0625 -131.765625 191.21875 -127.609375 C 195.507812 -123.453125 198.421875 -119.296875 199.953125 -115.140625 C 201.472656 -110.984375 202.234375 -106.617188 202.234375 -102.046875 L 202.234375 -99.96875 L 150.6875 -99.96875 C 150.40625 -101.632812 149.988281 -102.953125 149.4375 -103.921875 C 149.019531 -105.023438 147.910156 -106.550781 146.109375 -108.5 C 144.171875 -110.300781 141.75 -111.753906 138.84375 -112.859375 C 135.789062 -114.109375 131.351562 -115.148438 125.53125 -115.984375 C 122.488281 -116.535156 119.648438 -116.914062 117.015625 -117.125 C 114.378906 -117.332031 111.125 -117.4375 107.25 -117.4375 L 99.765625 -117.4375 C 93.804688 -117.4375 88.816406 -117.257812 84.796875 -116.90625 C 80.773438 -116.5625 77.175781 -116.046875 74 -115.359375 C 67.625 -113.972656 63.742188 -112.515625 62.359375 -110.984375 C 60.972656 -109.597656 60.28125 -107.59375 60.28125 -104.96875 C 60.28125 -102.46875 61.039062 -100.457031 62.5625 -98.9375 C 64.082031 -97.269531 67.613281 -95.8125 73.15625 -94.5625 C 78.84375 -93.175781 86.8125 -92.484375 97.0625 -92.484375 L 108.703125 -92.28125 L 123.671875 -92.078125 C 153.179688 -91.523438 174.519531 -87.78125 187.6875 -80.84375 C 200.84375 -74.0625 207.421875 -63.394531 207.421875 -48.84375 L 207.421875 -46.140625 C 207.421875 -40.734375 206.800781 -35.882812 205.5625 -31.59375 C 204.175781 -27.4375 201.539062 -23.140625 197.65625 -18.703125 C 193.632812 -14.273438 188.300781 -10.535156 181.65625 -7.484375 C 175.144531 -4.578125 166.140625 -2.148438 154.640625 -0.203125 C 143.140625 1.734375 129.765625 2.703125 114.515625 2.703125 Z M 99.765625 2.703125 "/></g></g></g></g></g><g transform="matrix(1, 0, 0, 1, 450, 250)"><g clip-path="url(#744ef1cd38)"><g fill="#ffffff" fill-opacity="1"><g transform="translate(1.057708, 99.419042)"><g><path d="M 37.3125 -60.296875 C 33.664062 -60.296875 30.382812 -59.671875 27.46875 -58.421875 C 24.5625 -57.171875 22.09375 -55.359375 20.0625 -52.984375 C 18.03125 -50.617188 16.46875 -47.765625 15.375 -44.421875 C 14.289062 -41.078125 13.75 -37.304688 13.75 -33.109375 C 13.75 -27.554688 14.613281 -22.738281 16.34375 -18.65625 C 18.082031 -14.570312 20.675781 -11.410156 24.125 -9.171875 C 27.582031 -6.941406 31.90625 -5.828125 37.09375 -5.828125 C 40.050781 -5.828125 42.832031 -6.078125 45.4375 -6.578125 C 48.039062 -7.078125 50.582031 -7.703125 53.0625 -8.453125 L 53.0625 -1.765625 C 50.644531 -0.859375 48.109375 -0.1875 45.453125 0.25 C 42.804688 0.6875 39.65625 0.90625 36 0.90625 C 29.28125 0.90625 23.664062 -0.488281 19.15625 -3.28125 C 14.644531 -6.070312 11.265625 -10.015625 9.015625 -15.109375 C 6.773438 -20.203125 5.65625 -26.21875 5.65625 -33.15625 C 5.65625 -38.164062 6.351562 -42.742188 7.75 -46.890625 C 9.15625 -51.035156 11.207031 -54.613281 13.90625 -57.625 C 16.601562 -60.644531 19.921875 -62.972656 23.859375 -64.609375 C 27.796875 -66.253906 32.3125 -67.078125 37.40625 -67.078125 C 40.757812 -67.078125 43.988281 -66.742188 47.09375 -66.078125 C 50.195312 -65.421875 53 -64.472656 55.5 -63.234375 L 52.421875 -56.71875 C 50.316406 -57.6875 48.003906 -58.523438 45.484375 -59.234375 C 42.960938 -59.941406 40.238281 -60.296875 37.3125 -60.296875 Z M 37.3125 -60.296875 "/></g></g></g><g fill="#ffffff" fill-opacity="1"><g transform="translate(59.399034, 99.419042)"><g><path d="M 59.171875 0 L 51.484375 0 L 51.484375 -31.171875 L 16.734375 -31.171875 L 16.734375 0 L 9.046875 0 L 9.046875 -66.140625 L 16.734375 -66.140625 L 16.734375 -37.953125 L 51.484375 -37.953125 L 51.484375 -66.140625 L 59.171875 -66.140625 Z M 59.171875 0 "/></g></g></g><g fill="#ffffff" fill-opacity="1"><g transform="translate(127.690044, 99.419042)"><g><path d="M 59.078125 -66.140625 L 59.078125 -23.34375 C 59.078125 -18.664062 58.132812 -14.503906 56.25 -10.859375 C 54.363281 -7.210938 51.519531 -4.335938 47.71875 -2.234375 C 43.914062 -0.140625 39.148438 0.90625 33.421875 0.90625 C 25.253906 0.90625 19.035156 -1.304688 14.765625 -5.734375 C 10.503906 -10.171875 8.375 -16.097656 8.375 -23.515625 L 8.375 -66.140625 L 16.109375 -66.140625 L 16.109375 -23.296875 C 16.109375 -17.679688 17.59375 -13.351562 20.5625 -10.3125 C 23.53125 -7.269531 27.96875 -5.75 33.875 -5.75 C 37.914062 -5.75 41.222656 -6.476562 43.796875 -7.9375 C 46.378906 -9.394531 48.296875 -11.441406 49.546875 -14.078125 C 50.804688 -16.722656 51.4375 -19.78125 51.4375 -23.25 L 51.4375 -66.140625 Z M 59.078125 -66.140625 "/></g></g></g><g fill="#ffffff" fill-opacity="1"><g transform="translate(195.212215, 99.419042)"><g><path d="M 26.921875 -66.140625 C 32.347656 -66.140625 36.832031 -65.46875 40.375 -64.125 C 43.914062 -62.78125 46.5625 -60.734375 48.3125 -57.984375 C 50.0625 -55.242188 50.9375 -51.75 50.9375 -47.5 C 50.9375 -44 50.300781 -41.078125 49.03125 -38.734375 C 47.769531 -36.398438 46.113281 -34.507812 44.0625 -33.0625 C 42.007812 -31.613281 39.820312 -30.5 37.5 -29.71875 L 55.640625 0 L 46.6875 0 L 30.484375 -27.59375 L 16.734375 -27.59375 L 16.734375 0 L 9.046875 0 L 9.046875 -66.140625 Z M 26.46875 -59.484375 L 16.734375 -59.484375 L 16.734375 -34.109375 L 27.234375 -34.109375 C 32.628906 -34.109375 36.597656 -35.207031 39.140625 -37.40625 C 41.691406 -39.613281 42.96875 -42.859375 42.96875 -47.140625 C 42.96875 -51.628906 41.617188 -54.804688 38.921875 -56.671875 C 36.222656 -58.546875 32.070312 -59.484375 26.46875 -59.484375 Z M 26.46875 -59.484375 "/></g></g></g><g fill="#ffffff" fill-opacity="1"><g transform="translate(252.37767, 99.419042)"><g><path d="M 37.3125 -60.296875 C 33.664062 -60.296875 30.382812 -59.671875 27.46875 -58.421875 C 24.5625 -57.171875 22.09375 -55.359375 20.0625 -52.984375 C 18.03125 -50.617188 16.46875 -47.765625 15.375 -44.421875 C 14.289062 -41.078125 13.75 -37.304688 13.75 -33.109375 C 13.75 -27.554688 14.613281 -22.738281 16.34375 -18.65625 C 18.082031 -14.570312 20.675781 -11.410156 24.125 -9.171875 C 27.582031 -6.941406 31.90625 -5.828125 37.09375 -5.828125 C 40.050781 -5.828125 42.832031 -6.078125 45.4375 -6.578125 C 48.039062 -7.078125 50.582031 -7.703125 53.0625 -8.453125 L 53.0625 -1.765625 C 50.644531 -0.859375 48.109375 -0.1875 45.453125 0.25 C 42.804688 0.6875 39.65625 0.90625 36 0.90625 C 29.28125 0.90625 23.664062 -0.488281 19.15625 -3.28125 C 14.644531 -6.070312 11.265625 -10.015625 9.015625 -15.109375 C 6.773438 -20.203125 5.65625 -26.21875 5.65625 -33.15625 C 5.65625 -38.164062 6.351562 -42.742188 7.75 -46.890625 C 9.15625 -51.035156 11.207031 -54.613281 13.90625 -57.625 C 16.601562 -60.644531 19.921875 -62.972656 23.859375 -64.609375 C 27.796875 -66.253906 32.3125 -67.078125 37.40625 -67.078125 C 40.757812 -67.078125 43.988281 -66.742188 47.09375 -66.078125 C 50.195312 -65.421875 53 -64.472656 55.5 -63.234375 L 52.421875 -56.71875 C 50.316406 -57.6875 48.003906 -58.523438 45.484375 -59.234375 C 42.960938 -59.941406 40.238281 -60.296875 37.3125 -60.296875 Z M 37.3125 -60.296875 "/></g></g></g><g fill="#ffffff" fill-opacity="1"><g transform="translate(310.719013, 99.419042)"><g><path d="M 59.171875 0 L 51.484375 0 L 51.484375 -31.171875 L 16.734375 -31.171875 L 16.734375 0 L 9.046875 0 L 9.046875 -66.140625 L 16.734375 -66.140625 L 16.734375 -37.953125 L 51.484375 -37.953125 L 51.484375 -66.140625 L 59.171875 -66.140625 Z M 59.171875 0 "/></g></g></g></g></g></svg>