<svg xmlns="http://www.w3.org/2000/svg" xmlns:xlink="http://www.w3.org/1999/xlink" width="1562" zoomAndPan="magnify" viewBox="0 0 1171.5 1142.25001" height="1523" preserveAspectRatio="xMidYMid meet" version="1.0"><defs><g/><clipPath id="2eaa314137"><path d="M 0.132812 0 L 1170 0 L 1170 1140.75 L 0.132812 1140.75 Z M 0.132812 0 " clip-rule="nonzero"/></clipPath></defs><g clip-path="url(#2eaa314137)"><path fill="#0a3161" d="M 476.738281 1140.75 C 441.363281 1101.734375 396.011719 1071.875 374.726562 1021.886719 C 353.214844 971.355469 355.316406 912.863281 378.457031 863.304688 C 402.59375 811.597656 451.496094 776.652344 490.941406 737.136719 C 534.890625 693.117188 578.183594 637.273438 629.28125 601.851562 C 638.238281 691.785156 647.039062 780.222656 656.128906 871.652344 C 677.371094 857.332031 704.761719 834.941406 717.066406 812.183594 C 733.625 781.582031 736.699219 736.570312 744.527344 702.820312 C 761.582031 629.195312 778.160156 555.457031 795.238281 481.832031 C 803.019531 448.289062 807.429688 426.890625 831.992188 402.441406 C 859.203125 375.363281 886.460938 348.3125 913.828125 321.394531 C 944.863281 290.882812 1030.566406 231.167969 970.71875 185.339844 C 947.304688 167.425781 921.363281 172.402344 900.167969 190.542969 C 869.699219 216.644531 842.128906 247.316406 813.492188 275.433594 C 761.015625 326.980469 708.742188 378.757812 656.445312 430.488281 C 604.0625 482.332031 551.742188 534.242188 499.222656 585.949219 C 447.015625 637.316406 396.890625 692.664062 342.039062 741.117188 C 236.5 834.328125 74.230469 801.125 0.855469 683.324219 C 128.652344 547.179688 265.476562 418.90625 398.722656 288.078125 C 466.039062 221.960938 532.449219 154.578125 601.730469 90.523438 C 660.179688 36.550781 735.34375 6.21875 814.9375 0.746094 C 979.222656 -10.539062 1130.859375 107.484375 1163.636719 267.042969 C 1180.734375 350.347656 1160.152344 438.609375 1110.730469 507.6875 C 1059.632812 579.117188 985.601562 639.011719 923.238281 700.605469 C 774.902344 847.109375 630.546875 1000.082031 476.738281 1140.75 Z M 275.042969 506.125 C 307.273438 516.507812 347.832031 513.566406 381.667969 516.214844 C 411.324219 518.542969 456.042969 530.441406 485.085938 523.179688 C 511.414062 516.621094 542.492188 472.898438 561.671875 454.078125 C 585.265625 430.960938 615.210938 408.140625 633.464844 380.679688 L 631.769531 378.011719 C 563.867188 393.007812 496.394531 409.835938 428.71875 425.804688 C 397.863281 433.089844 360.722656 436.140625 332.472656 450.914062 C 311.460938 461.882812 289.042969 487.195312 275.089844 506.082031 Z M 275.042969 506.125 " fill-opacity="1" fill-rule="nonzero"/></g><g fill="#0a3161" fill-opacity="1"><g transform="translate(677.827922, 254.538599)"><g><path d="M 6.96875 -4.859375 C 6.96875 -6.910156 7.429688 -8.460938 8.359375 -9.515625 C 9.296875 -10.566406 10.640625 -11.09375 12.390625 -11.09375 C 14.160156 -11.09375 15.539062 -10.566406 16.53125 -9.515625 C 17.53125 -8.460938 18.03125 -6.910156 18.03125 -4.859375 C 18.03125 -2.867188 17.523438 -1.335938 16.515625 -0.265625 C 15.503906 0.796875 14.128906 1.328125 12.390625 1.328125 C 10.828125 1.328125 9.53125 0.847656 8.5 -0.109375 C 7.476562 -1.078125 6.96875 -2.660156 6.96875 -4.859375 Z M 6.96875 -4.859375 "/></g></g></g></svg>