<?xml version="1.0" encoding="UTF-8" standalone="no"?>
<!-- Created with Inkscape (http://www.inkscape.org/) -->

<svg
   width="132.46992mm"
   height="44.666782mm"
   viewBox="0 0 132.46992 44.666782"
   version="1.1"
   id="svg1"
   xml:space="preserve"
   xmlns:inkscape="http://www.inkscape.org/namespaces/inkscape"
   xmlns:sodipodi="http://sodipodi.sourceforge.net/DTD/sodipodi-0.dtd"
   xmlns="http://www.w3.org/2000/svg"
   xmlns:svg="http://www.w3.org/2000/svg"><sodipodi:namedview
     id="namedview1"
     pagecolor="#ffffff"
     bordercolor="#000000"
     borderopacity="0.25"
     inkscape:showpageshadow="2"
     inkscape:pageopacity="0.0"
     inkscape:pagecheckerboard="0"
     inkscape:deskcolor="#d1d1d1"
     inkscape:document-units="mm"><inkscape:page
       x="5.1792914e-14"
       y="0"
       width="132.46992"
       height="44.666782"
       id="page2"
       margin="0"
       bleed="0" /></sodipodi:namedview><defs
     id="defs1" /><g
     inkscape:label="Camada 1"
     inkscape:groupmode="layer"
     id="layer1"
     transform="translate(-36.466745,-116.13125)"><path
       style="fill:#000000;stroke-width:0.630915"
       d="m 151.28675,160.62203 c -8.71539,-1.42592 -14.70428,-8.57426 -14.2685,-17.03089 0.39305,-7.6274 5.68807,-13.53141 13.62825,-15.19564 1.4929,-0.31291 4.51268,-0.35781 5.97061,-0.0888 3.24559,0.5989 6.41327,2.30691 8.49818,4.58222 2.52139,2.75166 2.84901,5.53771 0.87703,7.45847 -1.73777,1.69265 -3.98303,2.38748 -8.91904,2.76014 -4.76742,0.35993 -7.01641,0.91761 -9.44827,2.34289 -1.97943,1.1601 -3.47081,3.23436 -3.839,5.33937 -0.21192,1.21158 -0.0411,1.64549 1.49661,3.80166 1.44264,2.02286 3.61167,3.69576 6.0316,4.65195 3.72278,1.471 8.89288,0.59749 12.45809,-2.10484 1.31028,-0.99316 2.76169,-2.5489 3.80526,-4.07879 0.78345,-1.14856 1.11944,-1.40803 1.34683,-1.0401 0.21028,0.34023 -2.33288,3.62847 -3.74861,4.84687 -2.15965,1.85863 -4.46315,3.00289 -7.26212,3.60743 -1.67786,0.36239 -4.87961,0.43393 -6.62692,0.14805 z m -7.83197,-11.52222 c 1.37809,-3.93486 5.45727,-6.11015 12.68111,-6.76239 2.55677,-0.23086 3.62418,-0.60466 4.69958,-1.64575 1.44095,-1.39499 1.71196,-3.67253 0.73092,-6.14251 -0.87775,-2.20994 -2.3612,-3.85149 -4.39092,-4.85886 -1.11098,-0.55139 -1.39231,-0.61834 -2.8378,-0.67537 -1.79837,-0.071 -3.17777,0.2059 -4.59736,0.92275 -4.1109,2.07585 -6.7174,6.1674 -7.45833,11.7077 -0.21452,1.60405 -0.10763,5.54074 0.17974,6.61979 0.43417,1.6303 0.53262,1.94865 0.58573,1.89421 0.0311,-0.0319 0.21441,-0.5087 0.40733,-1.05957 z m -53.583796,11.19924 c -3.39765,-0.60443 -6.072991,-1.98679 -7.708891,-3.98318 -0.515733,-0.62939 -0.561019,-0.75566 -0.366442,-1.02176 0.207666,-0.284 0.257445,-0.26328 0.770134,0.32064 0.774681,0.88231 2.538352,2.18121 3.741117,2.75524 3.767839,1.79822 10.192372,1.69747 13.810218,-0.21658 3.49922,-1.85129 4.15437,-5.47115 1.38894,-7.67418 -1.07802,-0.85879 -2.991929,-1.76379 -5.9143,-2.79661 -3.700658,-1.30789 -5.380968,-1.98244 -6.679389,-2.68142 -3.487121,-1.87723 -5.135179,-4.14671 -5.327315,-7.33605 -0.106033,-1.76009 0.138007,-2.9906 0.892018,-4.49778 1.683149,-3.36442 6.232277,-5.24024 11.367481,-4.68735 0.95494,0.10282 2.377576,0.37279 3.161412,0.59994 1.886313,0.54663 3.898703,1.54238 3.898703,1.92912 0,0.5214 -0.29826,0.5018 -1.48905,-0.0979 -3.263924,-1.64368 -7.928299,-2.12849 -11.197586,-1.16386 -3.659578,1.07979 -5.907511,4.11488 -4.934564,6.6625 0.389522,1.01995 1.743424,2.2112 3.454142,3.03916 0.768326,0.37186 2.936882,1.2594 4.819011,1.97232 6.084006,2.3045 8.488437,3.79546 10.024197,6.21591 1.49778,2.3606 1.59677,6.14676 0.22204,8.49257 -0.85626,1.46109 -2.67035,2.82167 -4.66524,3.49895 -2.303027,0.7819 -6.807679,1.10774 -9.266636,0.6703 z M 46.649446,138.58326 v -21.61737 h -0.737903 c -0.405847,0 -1.851873,0.0707 -3.213392,0.15721 -1.361519,0.0865 -3.32057,0.20317 -4.353447,0.25936 l -1.877956,0.10216 v -0.67669 -0.67668 h 12.770104 12.770104 v 0.66771 c 0,0.58252 -0.04793,0.66714 -0.375592,0.66316 -0.206574,-0.003 -2.178429,-0.11352 -4.381898,-0.2467 -2.203469,-0.13317 -4.325559,-0.24379 -4.715757,-0.24583 l -0.70945,-0.004 v 21.61736 21.61737 h -2.587407 -2.587406 z m 11.184274,5.84253 v -15.77483 h 2.503942 2.503941 l 0.0113,5.63386 c 0.0062,3.10063 0.0728,5.48375 0.148073,5.30001 0.07523,-0.18362 0.339305,-1.04748 0.586842,-1.91968 0.945856,-3.33276 2.216861,-5.64512 4.063312,-7.39246 3.836589,-3.63066 9.940051,-2.57851 12.413896,2.13998 0.682508,1.30179 1.086328,2.71409 1.167728,4.08397 l 0.05456,0.91811 -2.545674,0.0461 -2.545675,0.0461 v -1.98472 c 0,-3.32139 -0.568246,-5.13384 -1.882208,-6.00337 -0.606647,-0.40147 -0.836724,-0.45055 -2.111908,-0.45055 -1.175627,0 -1.563243,0.0694 -2.171397,0.38899 -3.301862,1.73497 -5.672902,6.54664 -6.800217,13.80002 -0.194855,1.25373 -0.279931,3.57047 -0.341746,9.30631 l -0.0823,7.63703 H 60.31995 57.83372 Z m 10.850414,8.7638 v -7.01104 h 2.503942 2.503942 v 7.01104 7.01104 h -2.503942 -2.503942 z m 37.933866,-8.72206 0.0426,-15.73311 2.54568,-0.046 2.54567,-0.0461 0.0114,6.89019 0.0114,6.89019 0.38242,-1.25197 c 1.34764,-4.41186 3.53089,-8.00755 6.23521,-10.26905 1.3102,-1.09565 3.70088,-2.30551 5.12821,-2.59523 1.35273,-0.27458 3.78416,-0.22827 5.00788,0.0954 3.15881,0.83547 5.29867,2.95305 6.00282,5.9403 0.21285,0.90302 0.25248,2.99901 0.25457,13.46402 l 0.003,12.39452 h -2.50394 -2.50394 v -11.33352 c 0,-13.55808 -0.12753,-15.31736 -1.27785,-17.62874 -0.89552,-1.7994 -1.89776,-2.34162 -4.10161,-2.21898 -5.26406,0.29292 -10.27705,6.43467 -12.16623,14.90561 -0.3469,1.55546 -0.3768,2.16734 -0.4385,8.97246 l -0.0662,7.30317 h -2.57724 -2.57725 z m -35.847248,-0.0329 c -0.09181,-0.0347 -0.375398,-0.10916 -0.630194,-0.16543 -0.60806,-0.13428 -1.782005,-1.20412 -2.066196,-1.88296 -0.537628,-1.28423 -0.07211,-3.12461 0.993766,-3.92878 0.995838,-0.75134 1.982746,-0.94448 3.158073,-0.61807 2.646605,0.73504 3.147529,4.58741 0.785139,6.03813 -0.680974,0.41818 -1.843589,0.70727 -2.240588,0.55711 z m 67.592168,-18.6819 c -0.048,-0.12505 -0.0644,-0.66965 -0.0365,-1.21024 l 0.0507,-0.98289 7.30317,-0.0372 7.30316,-0.0372 v 1.24738 1.24738 h -7.26667 c -5.97797,0 -7.28214,-0.0403 -7.35392,-0.22735 z"
       id="path1"
       inkscape:export-filename="LOGO BRANCA.png"
       inkscape:export-xdpi="96"
       inkscape:export-ydpi="96" /></g></svg>
