<?xml version="1.0" encoding="UTF-8"?>
<svg id="Layer_2" data-name="Layer 2" xmlns="http://www.w3.org/2000/svg" viewBox="0 0 359.33 94.95">
  <defs>
    <style>
      .cls-1 {
        fill: #ffcf01;
      }

      .cls-2 {
        fill: #0080c2;
      }

      .cls-3 {
        fill: #005d95;
      }
    </style>
  </defs>
  <g id="Camada_1" data-name="Camada 1">
    <g>
      <path class="cls-3" d="M304.09,50.87v41.85c-5.32,0-9.63-4.31-9.63-9.63v-41.85c5.32,0,9.63,4.31,9.63,9.63ZM213.88,42.33h0s-16.34,0-16.34,0c-5.32,0-9.63,3.9-9.63,8.7l21.74-3.18c2.99-.66,4.24-1.88,4.24-5.52ZM162.59,67.27c-.15,13.31-8.31,26.62-26.4,26.62s-26.47-13.02-26.47-26.55,8.68-27.14,26.47-27.14,26.55,13.61,26.4,27.06ZM153.02,67.41c.15-8.68-4.71-18.39-16.84-18.39s-17.13,9.78-16.91,18.46c.22,8.46,4.78,17.51,16.91,17.51s16.7-9.12,16.84-17.58ZM256.44,61.24c-6.18-.74-11.47-1.99-11.47-6.47,0-3.83,3.46-6.84,10.66-6.84,3.09,0,5.96.85,8.2,2.12,3.3,1.86,7.31,1.93,10.68.19l1.06-.54c-3.9-7.94-12.21-10.22-20.22-10.22-9.49.07-19.93,4.41-19.93,15,0,11.55,9.71,14.34,20.22,15.59,6.84.73,11.91,2.72,11.91,7.58,0,5.59-5.73,7.72-11.84,7.72-3.75,0-7.4-.9-10.21-2.84-3.67-2.54-8.29-3.24-12.25-1.19l-.13.06c4.63,11.4,15.51,13.74,29.38,12.25,8.3-.89,14.75-7.85,14.67-16.2-.11-12.11-10.06-14.89-20.74-16.2ZM338.59,61.24c-6.18-.74-11.47-1.99-11.47-6.47,0-3.83,3.46-6.84,10.66-6.84,3.09,0,5.96.85,8.2,2.12,3.3,1.86,7.31,1.93,10.68.19l1.06-.54c-3.9-7.94-12.21-10.22-20.22-10.22-9.49.07-19.93,4.41-19.93,15,0,11.55,9.71,14.34,20.22,15.59,6.84.73,11.91,2.72,11.91,7.58,0,5.59-5.73,7.72-11.84,7.72-3.75,0-7.4-.9-10.21-2.84-3.67-2.54-8.29-3.24-12.25-1.19l-.13.06c4.63,11.4,15.51,13.74,29.38,12.25,8.3-.89,14.75-7.85,14.67-16.2-.11-12.11-10.06-14.89-20.74-16.2ZM200.89,52.99c-3.22,0-6.14,1.46-7.46,3.73l-20.93,35.99h5.72c3.25,0,6.18-1.48,7.49-3.77l15.18-26.31,14.89,26.3c1.3,2.3,4.24,3.78,7.49,3.78h6.01l-20.93-35.99c-1.32-2.27-4.24-3.73-7.46-3.73ZM129.94,8.58c0,2.27-1.84,4.11-4.11,4.11h-8.36V2h-4.78v25.37h4.78v-5.84c0-2.44,1.98-4.42,4.42-4.42h8.05v10.26h4.75V2h-4.75v6.58ZM234.4,22.91h-5.3c-1.84,0-3.32-1.49-3.32-3.32V1.96h-4.78v22.05c0,1.83,1.49,3.32,3.32,3.32h14.51c0-2.44-1.98-4.42-4.42-4.42ZM165.61,14.25c-.07,6.56-4.1,13.12-13.01,13.12s-13.05-6.42-13.05-13.08,4.28-13.37,13.05-13.37,13.08,6.7,13.01,13.34ZM160.89,14.32c.07-4.28-2.32-9.06-8.3-9.06s-8.44,4.82-8.33,9.1c.11,4.17,2.36,8.63,8.33,8.63s8.23-4.49,8.3-8.66ZM168.31,1.96h-1.55v4.35h7.53c1.14,0,2.06.92,2.06,2.06v18.96h4.78V8.37c0-1.14.92-2.06,2.06-2.06h7.53V1.96h-22.42ZM199.98,6.61h9.6c2.56,0,4.64-2.08,4.64-4.64h-18.99v20.96c0,2.44,1.97,4.41,4.41,4.41h14.58v-.25c0-2.46-2-4.46-4.46-4.46h-9.77v-5.72l11.7-.02v-4.46l-7.69.02h.01s-4.02.01-4.02.01v-5.85Z"/>
      <g>
        <path class="cls-3" d="M64.83,77.41c-35.15,0-36.93-17.59-63.43-18.51,5.12,20.7,23.8,36.05,46.08,36.05,16.98,0,31.87-8.92,40.26-22.32-6.77,2.74-14.59,4.78-22.91,4.78Z"/>
        <path class="cls-1" d="M7.55,44.9c-1.01.3-2,.67-2.97,1.04,0-.01,0-.02,0-.03,0-18.7,15.21-33.91,33.91-33.91s33.91,15.21,33.91,33.91c0,3.42-.52,6.72-1.47,9.84-1.12.1-2.12.16-2.84.16-16.05,0-33.56-4.74-33.56-15.6,0-7.05,6.21-14.06,17.71-14.06,5.14,0,9.77,2.09,13.14,5.45.1.1.21.19.31.29-5.25-9.63-15.47-16.17-27.22-16.17-16.48,0-29.95,12.86-30.93,29.08ZM94.95,47.48C94.95,21.26,73.7,0,47.48,0c-6.84,0-13.33,1.46-19.21,4.06,4.37-1.45,9.04-2.25,13.9-2.25,24.35,0,44.09,19.74,44.09,44.09,0,2.24-.17,4.44-.49,6.59,3.21-1.19,6.31-2.63,9.17-4.33,0-.23.02-.46.02-.69ZM.01,47.98c.96-.51,1.98-.97,2.99-1.4,0-.22-.03-.44-.03-.67C2.97,25.61,20,9.29,40.54,10.45c14.65.82,27.36,10.95,31.81,24.93,2.28,7.17,2.04,14,.29,20.2,2.04-.23,4.25-.56,5.96-.93,0,0,0,0,.01,0h0c1.83-.4,3.63-.94,5.41-1.53,1.21-7.03.78-14.61-2.36-22.51-5.95-14.96-19.83-25.68-35.87-27.03-8.31-.7-16.18,1.02-22.99,4.52C13.89,12.68,7.07,20.6,3.35,29.93c-2.16,5.43-3.35,11.35-3.35,17.55,0,.17.01.33.01.5Z"/>
        <path class="cls-2" d="M52.93,84.07c-3.71,1.22-7.66,1.91-11.78,1.91-13.91,0-26.02-7.56-32.54-18.78-1.35-3.31.16-3.94,2.73-3.35,3.14.73,6.18,1.74,9.1,3.03,2.49,1.1,9.32,5.23,10.38,5.83,5.97,3.41,12.43,5.94,19.25,7.4,4.26.92,7.89,1.2,2.86,3.96ZM75.4,70.61c7.3,0,12.94-3.62,16.87-7.4,1.66-4.72,2.59-9.78,2.66-15.04-4.93,2.94-10.54,5.2-16.32,6.47h0s0,0-.01,0c-3.24.71-8.25,1.26-10.51,1.26-16.05,0-33.56-4.74-33.56-15.6,0-7.05,6.21-14.06,17.71-14.06,5.14,0,9.77,2.09,13.14,5.45.1.1.21.19.31.29-5.25-9.63-15.47-16.17-27.22-16.17-16.48,0-29.95,12.86-30.93,29.08-1.18.35-2.32.76-3.45,1.21-1.39.55-2.78,1.18-4.09,1.87.03,3.2.38,6.32,1.01,9.33,4.26-1.39,9.82-2.59,16.34-2.59,23.46,0,29.68,15.9,58.03,15.9Z"/>
      </g>
    </g>
  </g>
</svg>