<?xml version="1.0" encoding="UTF-8"?>
<svg id="Layer_2" data-name="Layer 2" xmlns="http://www.w3.org/2000/svg" xmlns:xlink="http://www.w3.org/1999/xlink" viewBox="0 0 1680.63 1607.6">
  <defs>
    <style>
      .cls-1 {
        fill: none;
      }

      .cls-2 {
        clip-path: url(#clippath-1);
      }

      .cls-3 {
        fill: #0048b0;
      }

      .cls-4 {
        clip-path: url(#clippath);
      }
    </style>
    <clipPath id="clippath">
      <rect class="cls-1" x="237.29" width="1179.47" height="1220.93"/>
    </clipPath>
    <clipPath id="clippath-1">
      <rect class="cls-1" x="293.85" y="1442.27" width="1066.67" height="165.33"/>
    </clipPath>
  </defs>
  <g id="Layer_1-2" data-name="Layer 1">
    <g class="cls-4">
      <path class="cls-3" d="M826.3.79h0c-.19.09-.34.7-.59,1.19-.53,1.02-1.67,6.08-2.54,11.25-2.68,15.96-60.44,304.08-65.12,324.81-.76,3.39-1.16,6.77-.87,7.52.7,1.82,82.39,1.38,113.81-.63,23.2-1.48,23.47-1.53,23.47-4.37,0-1.58-2.83-16.85-6.29-33.94-3.46-17.09-9.08-44.88-12.48-61.76-3.41-16.87-8.48-41.66-11.28-55.09-2.8-13.43-6.49-32.02-8.22-41.32s-4.78-24.8-6.78-34.44c-2.01-9.64-7.65-37.81-12.52-62.6-8.37-42.59-9.81-50.35-10.52-50.62h-.01s-.02,0-.02,0h-.04ZM1055.37,67.65c-.23.04-.46.31-.73.78-2.07,3.73-7.58,22.35-9.36,31.68-3.28,17.11-2.05,41.03,2.99,58,2.03,6.85,11.16,24.1,17.3,32.71,16.61,23.29,31.26,36.13,74.85,65.66,17.86,12.1,18.03,12.74,1.88,7.06-34.67-12.18-51.53-20.21-67.51-32.16-11.99-8.96-24.52-21.55-30.53-30.66-5.13-7.78-7.66-9.28-6.34-3.76,9.59,40.42,18.65,58.21,41.16,80.83,10.8,10.85,18.6,16.61,39.22,28.96,27.43,16.42,36.72,24.25,41.68,35.14,3.11,6.82,3.05,19.59-.13,26.58-4.76,10.48-20.48,24.34-37.04,32.64-10.42,5.22-31.74,12.21-44.45,14.56-12.79,2.37-39.07,4.74-41.63,3.76-1.02-.39-2.21-.13-2.65.58s1.61,2.83,4.57,4.71c13.07,8.33,30.91,12.94,50.04,12.94h11.28l-6.11,6.7c-13.97,15.29-22.57,43.47-19.87,65.11.47,3.83,1.28,6.98,1.8,7.07,0,0,0,0,.03,0,.52,0,2.85-4.37,5.2-9.71,12.77-29.13,36.99-53.03,69.41-68.47,15.72-7.49,28.33-12.27,49.79-18.88,34.44-10.61,46.65-15.95,63.03-27.61,16.75-11.91,26.56-23.76,46.07-55.59,17.44-28.47,22.86-35.94,31.46-43.37,17.01-14.7,30.35-20.54,46.93-20.54,7.85,0,8.18-2.26,1.27-8.83-5.7-5.42-13.4-8.27-25.65-9.48-6.36-.63-10.04-1.77-13.77-4.26-7.69-5.13-13.74-6.65-23.19-5.85-9.39.79-17.45,4-34.14,13.64-15.06,8.69-27.16,11.04-40.71,7.89-1.97-.46-2.81-.08-2.81,1.24,0,3.49-1.84,1.86-4.65-4.09-1.53-3.24-5.75-9.61-9.39-14.16-12.17-15.19-25.61-25.34-60.21-45.46-38.23-22.23-56.86-35.48-75.78-53.88-17.57-17.1-28.97-34.58-36.84-56.51-1.74-4.86-3.56-11.63-4.02-15.03-.97-7.11-1.61-9.99-2.4-9.98h-.05ZM788.3,75.66c-1.88-1.69-51.42,5.34-72.84,10.34-46.42,10.84-78.93,22.31-118.29,41.74-29.33,14.48-48.55,26.06-76.96,46.36-17.69,12.64-40.49,32.66-61.54,54.03-20.55,20.86-24.57,25.43-40.81,46.36-56.42,72.71-93.53,162.52-104.68,253.33-1.76,14.29-2.48,22.9-2.15,25.35.07.52.48.94.92.94,2.31,0,50.03-10.45,50.77-11.11.48-.43,1.79-6.98,2.91-14.56,6.71-45.37,22.74-97.2,43.01-138.98,34.6-71.33,86.07-133.3,147.04-177,63.09-45.22,140.2-75.23,214.66-83.53,4.36-.49,8.16-1.51,8.44-2.28,1.71-4.66,10.26-50.37,9.54-51.02ZM864.98,76.09c-.31.31,1.69,11.74,4.44,25.41,2.76,13.67,5.01,25.01,5.01,25.2,0,.39,1.46.64,24.41,4.28,32.16,5.1,50.01,9.57,83.24,20.84,16.45,5.58,38.22,14.58,40.62,16.8,2.28,2.11,3.47,1.08,2.69-2.34-3.18-13.8-4.42-24.33-4.46-37.96l-.04-15.74-9.7-3.98c-26.93-11.05-65.65-21.81-97.32-27.04-14.93-2.47-48.17-6.19-48.88-5.48ZM525.7,287.84c-.05,0-.11.03-.14.06h-.01s0,.01,0,.01h0s0,.02,0,.02h-.01c-.18.52,1.72,3.98,4.33,7.86,2.69,4.02,9.88,16.03,15.98,26.71,14.52,25.39,31.22,53.39,47.25,79.19,4.11,6.61,5.69,7.18,9.19,3.31,7.47-8.27,29.96-24.01,45.26-31.67,5.87-2.94,8.53-5.76,5.44-5.76-.63,0-5.28-2.76-10.33-6.14-5.05-3.37-20.45-13.2-34.22-21.83-22.3-13.98-65.92-41.67-77.85-49.42-2.14-1.39-4.14-2.34-4.82-2.34-.02,0-.04,0-.06,0h0ZM1022.47,320.08h0c-.6.02-1.91.89-3.2,2.16-7.28,7.19-19.65,15.44-33.35,22.25-17.41,8.65-36.42,14.22-65.81,19.26-19.39,3.33-36.31,4.16-103.27,5.05-75.36,1.01-80.57,1.36-109.53,7.62-33.72,7.29-65.78,23.27-87.14,43.42-18.16,17.13-35.67,42.56-44.2,64.17-6.04,15.31-14.48,48.32-14.48,56.66,0,3.43.73,2.69,4.38-4.38,8.19-15.9,29.63-38.89,47.1-50.51,20.36-13.54,52.14-25.44,79.95-29.93,20.08-3.24,53.12-4.44,114.53-4.15,61.19.29,71.02-.24,98.66-5.38,57.91-10.74,93.08-40.46,109.55-92.54,4.02-12.73,8.18-32.52,7.07-33.63-.05-.05-.14-.08-.25-.08ZM1301.27,390.31c-1.2.07-2.61,1.66-5.03,3.94-7.86,7.41-24.63,20.55-30.97,24.27-2.83,1.67-5.17,3.23-5.32,3.56v.02h0c0,.26,1.15,3.37,2.55,6.92,10.72,27.2,21.72,71.88,25.86,105.01l1.01,8.07,21.28,4.67c11.7,2.57,23.25,5.17,25.66,5.78s4.8.77,5.3.35c1.33-1.08-3.45-39.68-7.24-58.52-6.02-29.93-15.17-62.37-24.27-86.07-5.14-13.36-6.66-17.97-8.71-18.02-.04,0-.07,0-.11,0h0ZM709.22,476.49c-.68,0-8.15,1.46-16.59,3.24-39.84,8.41-66.02,21.05-88.99,43.01-31.56,30.16-45.77,62.31-66.63,150.8-21.19,89.88-23.08,97.27-30.64,119.89-9.45,28.3-21.54,55.59-33.45,75.59-5.91,9.93-23.54,33.26-31.85,42.14-18.95,20.27-52.49,41.73-77.97,49.9-4.82,1.54-9.32,3.35-10.02,4.03-.82.8,1.36.98,6.26.52,4.13-.39,12.58-1.05,18.78-1.47,41.13-2.8,77.95-12.34,110.78-28.73,44.52-22.22,77.77-57.23,103.59-109.07,11.4-22.88,17.04-40.88,34.05-108.7l15.69-62.59,40.06-.17c42.97-.18,50.37-.97,69.29-7.41,13.9-4.73,23.78-10.58,33.63-19.91,13.49-12.79,22.58-28.38,29.7-50.94,4.14-13.09,4.16-14.42.15-11.79-4.46,2.92-16.89,6.47-33.26,9.51-12.63,2.34-20.83,2.76-66.96,3.43-28.91.42-52.83.6-53.15.41h0s0-.02,0-.02c-.72-.88,3.34-16.03,8.94-33.22,9.21-28.3,25.39-57.07,36.03-64.06,3.8-2.5,4.91-4.38,2.58-4.38ZM1217.64,518.43l-6.7,6.43c-25.24,24.2-61.09,37.99-115.59,44.45-7.82.92-47.48,1.8-105.78,2.34-88.65.82-93.78.99-103.89,3.47-36.34,8.91-59.71,28.55-72.58,60.98-3.29,8.28-11.29,36.1-11.29,39.25,0,.06.02.1.04.13l.03.03c.45.36,3.21-1.18,6.52-3.69,8.65-6.57,15.45-9.72,29.1-13.46,10.03-2.75,14.47-3.16,40.38-3.71,16.01-.33,29.91-.29,30.89.07,1.48.57,1.26,2.53-1.28,11.71-1.68,6.07-5.62,21.46-8.77,34.2-15.39,62.41-18.09,73.2-22.21,88.9-19.21,73.24-45.12,112.51-83.1,125.92-4.66,1.65-9.46,3.01-10.67,3.03-4.38.05-2.06,2.53,2.5,2.68,2.58.08,10.61.55,17.84,1.04,33.74,2.29,63.74-2.7,89.56-14.89,15.28-7.21,23.06-12.48,34.15-23.14,23.79-22.85,40.67-56.94,52.15-105.29,4.21-17.76,14.31-59.1,21.26-87.02,2.99-12.05,6.14-25.44,6.97-29.74l1.52-7.82,20.81-.03c34.42-.04,66.19-4.08,90.07-11.46,34.04-10.52,64.25-35.27,79.03-64.76,7.99-15.94,15.77-39.07,18.15-53.97l.9-5.65ZM536.94,531.59c-1.61,0-31.74,5.71-49.93,9.47-4.82.99-25.93,5.23-46.93,9.41-21,4.18-70.57,14.11-110.16,22.06-74.74,15.02-80.15,16.08-87.94,17.3-2.58.4-4.69,1.19-4.69,1.76s2.11,1.35,4.69,1.75c4.58.69,59.09,11.9,107.96,22.18,22.74,4.79,47.49,9.92,129.55,26.86,17.9,3.69,34.21,6.61,36.23,6.51,3.67-.21,3.7-.28,8.23-18.38,5.08-20.28,9.95-36.55,14.67-49.04l3.15-8.35-2.2-8.98c-1.63-6.65-2.04-12.05-1.58-20.76.48-9.3.27-11.78-1.06-11.78ZM1232.73,552.82l-3.36,10.77c-4.25,13.65-16.38,37.55-24.41,48.13-7.35,9.68-16.13,19.01-23.86,25.38-6.67,5.48-5.82,5.66,10.34,2.21,6.36-1.35,34.66-7.32,62.89-13.26,28.22-5.93,59.2-12.46,68.84-14.5,9.64-2.04,25.41-5.32,35.05-7.29,63.58-13,59.19-12,58.02-13.17-.67-.67-1.56-.86-79.3-16.79-30.29-6.2-64.08-13.23-75.1-15.6s-22.07-4.66-24.57-5.09l-4.54-.79ZM312.24,630.5c-2.7.24.94,31.02,7.79,65.74,11.27,57.15,39.92,127.02,71.61,174.67,7.85,11.8,18.05,26.02,21.44,29.86l2.59,2.94,10.81-11.38c5.94-6.26,13.47-15.28,16.73-20.06l5.93-8.69-9.34-14.82c-27.48-43.55-41.18-71.93-54.57-113.09-8.44-25.97-16.08-58.83-19.06-82.02-.8-6.2-1.83-11.67-2.29-12.17-.79-.85-48.42-11-51.61-11h-.03ZM1340.87,632.14c-.81-.8-37.77,5.84-48.01,8.63-4.5,1.22-3.92-.79-7.23,24.79-5.33,41.05-20.45,87.65-43.08,132.72-23.82,47.44-49.06,82.54-86.49,120.23-22.12,22.28-27.69,27.21-50.07,44.44-41.9,32.26-83.31,54.34-134.56,71.78-25.18,8.57-65.72,17.91-85.83,19.78-6.17.57-9.09,1.42-9.83,2.83-.58,1.1-2.29,9.05-3.8,17.65-1.51,8.61-3.54,19.04-4.5,23.17-.97,4.13-1.77,8.22-1.78,9.08-.03,1.99,2.19,1.96,21.54-.3,60.14-7.04,115.62-23.77,169.31-51.06,21.65-11.01,53.06-29.76,64.48-38.5,2.41-1.84,10.3-7.77,17.53-13.16,23.39-17.46,60.72-52.7,81.54-76.97,10.33-12.05,30.21-38.78,40.49-54.46,38.04-58.03,62.62-120.31,75.1-190.31,3.55-19.91,6.56-48.98,5.21-50.34ZM1036.3,740.51c-1.52-.02-4.91,3.02-9.05,8.29-3.51,4.46-10.17,11.23-14.82,15.06l-8.45,6.95-4.1,15.3c-2.26,8.42-4.4,16.43-4.77,17.8-.57,2.12,4.29,5.8,31.64,23.96,34.19,22.7,73.23,48.32,89.88,58.97,13.28,8.5,13.8,8.48,7.49-.29-1.48-2.07-3.68-5.73-4.87-8.14-2.81-5.66-3.97-7.59-10.91-18.16-3.17-4.82-8.59-13.55-12.04-19.41s-12.6-21.07-20.34-33.81c-7.74-12.74-15-24.77-16.12-26.74-1.11-1.97-6.68-11.21-12.36-20.53-5.68-9.32-10.32-17.43-10.32-18.02,0-.84-.3-1.24-.85-1.25ZM878.09,937.53c-1.42.08-4.39.64-7.65,1.45-24.47,6.09-61.38,8.17-84.15,4.75-5.44-.82-10.1-1.29-10.35-1.04h0s0,.01,0,.01h0s0,.02,0,.02h0c-.19.49.52,4.77,1.59,9.7,3.37,15.39,10.36,48.25,14.23,66.86,2.01,9.64,7.03,32.73,11.16,51.33,10.07,45.26,21.05,97.53,22.04,104.86.89,6.6,2.54,7.79,3.48,2.51.34-1.9,3.24-15.84,6.44-30.98,3.21-15.15,7.73-36.57,10.06-47.58,12.66-59.98,21.1-99.51,27.55-128.96,1.66-7.58,3.92-17.93,5.03-23.01,1.09-5,1.72-9.37,1.43-9.82h-.01s0-.02,0-.02h-.01c-.09-.07-.4-.1-.84-.07h0ZM521.76,942.27c-.94,0-5.46,2.62-10.04,5.82-4.58,3.2-14.69,8.89-22.46,12.65-12.54,6.05-16.45,9.21-13.06,10.54.59.23,5.8,4.74,11.58,10.02,18.65,17.05,38.73,32.32,63.71,48.47,13.59,8.79,39.17,23.43,48.82,27.95,35.12,16.45,39.94,18.43,65.82,27.07,33.99,11.34,79.29,20.7,117.55,24.29,3.36.32,3.79-.04,4.04-3.4.15-2.07-1.82-14.18-4.38-26.92l-4.66-23.17-4.38-.34c-8.14-.65-29.34-4.16-43.19-7.16-37.8-8.19-70.28-19.46-106.96-37.11-22.24-10.7-39.24-20.67-57.02-33.4-15.79-11.31-35.66-26.95-40-31.48-2.01-2.1-4.42-3.81-5.36-3.81ZM444.98,1212.15c10.04.6,20.09.95,30.14,1.23,1.24.02,2.49.02,3.73,0-8.55-.83-19.27-1.19-33.88-1.22ZM1110.89,1220.41c.83-.04-1.65.01-2.48.02-1.02.04-2.02.13-3.01.25,1.83-.07,3.66-.16,5.49-.27Z"/>
    </g>
    <path class="cls-3" d="M22.31,1435.92H0v-191.98h106.88v19.69H22.31v70.4h79.46v19.56H22.31v82.33Z"/>
    <path class="cls-3" d="M232.5,1435.92h-106.88v-191.98h106.88v19.69h-84.56v62.13h79.71v19.42h-79.71v71.06h84.56v19.69Z"/>
    <path class="cls-3" d="M313.74,1243.94c15.76,0,28.78,1.95,39.06,5.85,10.29,3.89,17.97,9.82,23.04,17.79,5.08,7.96,7.63,18.11,7.63,30.46,0,10.16-1.84,18.63-5.52,25.42-3.67,6.78-8.48,12.27-14.44,16.48-5.95,4.2-12.29,7.43-19.04,9.71l52.67,86.27h-26l-47.02-80.1h-39.92v80.1h-22.31v-191.98h51.85ZM312.43,1263.23h-28.23v73.67h30.48c15.67,0,27.19-3.19,34.58-9.58,7.4-6.39,11.1-15.8,11.1-28.23,0-13.04-3.92-22.28-11.75-27.71-7.83-5.43-19.9-8.15-36.19-8.15Z"/>
    <path class="cls-3" d="M466.55,1243.94c15.76,0,28.78,1.95,39.06,5.85,10.29,3.89,17.97,9.82,23.04,17.79,5.08,7.96,7.63,18.11,7.63,30.46,0,10.16-1.84,18.63-5.52,25.42-3.67,6.78-8.48,12.27-14.44,16.48-5.95,4.2-12.29,7.43-19.04,9.71l52.67,86.27h-26l-47.02-80.1h-39.92v80.1h-22.31v-191.98h51.85ZM465.24,1263.23h-28.23v73.67h30.48c15.67,0,27.19-3.19,34.58-9.58,7.4-6.39,11.1-15.8,11.1-28.23,0-13.04-3.92-22.28-11.75-27.71-7.83-5.43-19.9-8.15-36.19-8.15Z"/>
    <path class="cls-3" d="M687.92,1435.92l-23.65-60.94h-76.96l-23.5,60.94h-22.58l75.1-192.77h20.1l74.58,192.77h-23.1ZM657.59,1355.17l-22.46-60.54c-.53-1.58-1.39-4.17-2.56-7.75-1.18-3.59-2.39-7.32-3.63-11.17-1.22-3.84-2.22-6.95-3-9.31-.88,3.58-1.82,7.16-2.83,10.71-1,3.54-1.99,6.82-2.96,9.83-.96,3.02-1.79,5.58-2.5,7.69l-22.83,60.54h62.77Z"/>
    <path class="cls-3" d="M776.24,1243.94c15.76,0,28.78,1.95,39.06,5.85,10.29,3.89,17.97,9.82,23.04,17.79,5.08,7.96,7.63,18.11,7.63,30.46,0,10.16-1.84,18.63-5.52,25.42-3.67,6.78-8.48,12.27-14.44,16.48-5.95,4.2-12.29,7.43-19.04,9.71l52.67,86.27h-26l-47.02-80.1h-39.92v80.1h-22.31v-191.98h51.85ZM774.92,1263.23h-28.23v73.67h30.48c15.67,0,27.19-3.19,34.58-9.58,7.4-6.39,11.1-15.8,11.1-28.23,0-13.04-3.92-22.28-11.75-27.71-7.83-5.43-19.9-8.15-36.19-8.15Z"/>
    <path class="cls-3" d="M877.19,1435.92v-191.98h22.31v191.98h-22.31Z"/>
    <path class="cls-3" d="M1067.78,1435.92h-40.71v-158.1h-52.15v-33.88h144.98v33.88h-52.13v158.1Z"/>
    <path class="cls-3" d="M1310.53,1339.67c0,14.79-1.84,28.25-5.52,40.38-3.67,12.13-9.24,22.57-16.73,31.33-7.49,8.75-16.97,15.47-28.44,20.15-11.47,4.68-25.04,7.02-40.71,7.02s-29.24-2.34-40.71-7.02c-11.47-4.68-20.95-11.4-28.44-20.15-7.47-8.76-13.05-19.23-16.73-31.4-3.68-12.17-5.52-25.69-5.52-40.58,0-19.88,3.26-37.19,9.77-51.94,6.53-14.75,16.57-26.19,30.15-34.33,13.57-8.14,30.82-12.21,51.75-12.21s37.96,4.07,51.4,12.21c13.44,8.14,23.42,19.61,29.94,34.42,6.53,14.79,9.79,32.17,9.79,52.13ZM1170.43,1339.67c0,13.39,1.68,24.93,5.04,34.6,3.38,9.67,8.65,17.1,15.83,22.31,7.18,5.21,16.46,7.81,27.83,7.81s20.92-2.6,28.1-7.81c7.18-5.21,12.41-12.65,15.69-22.31,3.29-9.68,4.94-21.21,4.94-34.6,0-20.14-3.77-35.98-11.31-47.54-7.53-11.55-19.91-17.33-37.15-17.33-11.47,0-20.82,2.6-28.04,7.81-7.22,5.21-12.52,12.66-15.9,22.33-3.36,9.67-5.04,21.24-5.04,34.73Z"/>
    <path class="cls-3" d="M1493.43,1243.94v124.23c0,13.21-2.92,25.14-8.75,35.77-5.82,10.64-14.62,19.07-26.4,25.29-11.77,6.21-26.58,9.31-44.44,9.31-25.39,0-44.74-6.48-58.04-19.44-13.31-12.96-19.96-30.11-19.96-51.48v-123.69h40.56v117.52c0,15.85,3.23,26.97,9.71,33.35,6.48,6.39,16.07,9.58,28.77,9.58,8.93,0,16.17-1.53,21.73-4.58,5.57-3.07,9.67-7.8,12.29-14.19,2.63-6.39,3.94-14.53,3.94-24.44v-117.25h40.58Z"/>
    <path class="cls-3" d="M1583.2,1243.94c17.42,0,31.79,2.1,43.13,6.31,11.34,4.2,19.78,10.54,25.29,19.04,5.51,8.49,8.27,19.2,8.27,32.15,0,8.77-1.67,16.43-5,23-3.32,6.56-7.7,12.11-13.13,16.67-5.43,4.56-11.29,8.28-17.58,11.17l56.46,83.65h-45.17l-45.83-73.67h-21.67v73.67h-40.71v-191.98h55.94ZM1580.3,1277.29h-12.33v51.85h13.13c13.48,0,23.14-2.25,28.96-6.75,5.82-4.51,8.73-11.15,8.73-19.9s-3.14-15.59-9.4-19.44c-6.25-3.84-15.95-5.77-29.08-5.77Z"/>
    <g class="cls-2">
      <g>
        <path d="M362.42,1570.19l-10.65-27.23h-34.33l-10.54,27.23h-10.06l33.85-85.98h8.38l33.67,85.98h-10.31ZM348.67,1534l-9.96-26.54c-1.29-3.34-2.62-7.46-3.98-12.35-.86,3.75-2.09,7.87-3.69,12.35l-10.08,26.54h27.71Z"/>
        <path d="M435.56,1506v6.15l-11.88,1.42c1.08,1.36,2.05,3.15,2.92,5.35.86,2.21,1.29,4.7,1.29,7.46,0,6.29-2.15,11.31-6.44,15.06s-10.19,5.63-17.69,5.63c-1.92,0-3.72-.16-5.4-.48-4.14,2.2-6.21,4.95-6.21,8.27,0,1.75.72,3.05,2.17,3.9,1.44.83,3.92,1.25,7.44,1.25h11.38c6.94,0,12.28,1.47,16,4.4,3.73,2.93,5.6,7.19,5.6,12.77,0,7.09-2.85,12.51-8.56,16.23-5.7,3.73-14.01,5.6-24.94,5.6-8.39,0-14.86-1.56-19.42-4.69-4.54-3.13-6.81-7.54-6.81-13.23,0-3.91,1.24-7.29,3.73-10.15,2.5-2.84,6.02-4.78,10.56-5.79-1.66-.73-3.04-1.88-4.15-3.44-1.11-1.57-1.67-3.39-1.67-5.46,0-2.34.63-4.4,1.88-6.15,1.25-1.76,3.22-3.46,5.92-5.1-3.32-1.36-6.03-3.68-8.13-6.96-2.08-3.28-3.13-7.03-3.13-11.25,0-7.03,2.11-12.44,6.33-16.25,4.22-3.8,10.19-5.71,17.92-5.71,3.36,0,6.39.39,9.08,1.17h22.19ZM384.37,1580.96c0,3.47,1.46,6.1,4.4,7.9,2.93,1.8,7.13,2.71,12.6,2.71,8.15,0,14.19-1.22,18.1-3.67,3.93-2.43,5.9-5.74,5.9-9.92,0-3.47-1.08-5.89-3.23-7.23-2.14-1.34-6.18-2.02-12.1-2.02h-11.67c-4.41,0-7.84,1.05-10.31,3.15-2.46,2.11-3.69,5.14-3.69,9.08ZM389.65,1526.56c0,4.49,1.27,7.89,3.81,10.19,2.54,2.31,6.07,3.46,10.6,3.46,9.48,0,14.23-4.61,14.23-13.83s-4.81-14.46-14.42-14.46c-4.56,0-8.07,1.23-10.54,3.69-2.46,2.46-3.69,6.11-3.69,10.96Z"/>
        <path d="M475.85,1571.35c-9.49,0-16.97-2.89-22.46-8.67-5.49-5.78-8.23-13.8-8.23-24.06s2.55-18.56,7.65-24.65c5.09-6.09,11.94-9.15,20.52-9.15,8.04,0,14.4,2.65,19.08,7.94,4.69,5.29,7.04,12.27,7.04,20.94v6.15h-44.21c.19,7.53,2.09,13.25,5.71,17.17,3.61,3.91,8.69,5.85,15.25,5.85,6.92,0,13.75-1.44,20.5-4.33v8.67c-3.43,1.47-6.68,2.53-9.75,3.17-3.07.65-6.77.98-11.1.98ZM473.22,1512.98c-5.16,0-9.27,1.68-12.33,5.04-3.07,3.35-4.88,7.99-5.42,13.92h33.56c0-6.13-1.37-10.81-4.1-14.06-2.74-3.26-6.64-4.9-11.71-4.9ZM453.6,1496.17c4.96-5.3,8.43-9.21,10.42-11.71,2-2.5,3.45-4.55,4.35-6.17h9.71c.86,1.66,2.35,3.78,4.48,6.38,2.14,2.58,5.65,6.42,10.52,11.5v1.35h-6.98c-3.43-2.15-7.74-5.78-12.94-10.9-5.31,5.22-9.58,8.85-12.81,10.9h-6.75v-1.35Z"/>
        <path d="M559.95,1570.19v-41.52c0-5.23-1.2-9.14-3.58-11.71-2.38-2.58-6.1-3.88-11.17-3.88-6.72,0-11.65,1.82-14.77,5.46-3.13,3.63-4.69,9.62-4.69,17.98v33.67h-9.71v-64.19h7.9l1.58,8.79h.48c1.98-3.17,4.77-5.61,8.35-7.35,3.59-1.73,7.6-2.6,12.02-2.6,7.72,0,13.53,1.87,17.44,5.6,3.92,3.72,5.88,9.68,5.88,17.88v41.88h-9.73Z"/>
        <path d="M615.28,1571.35c-9.29,0-16.49-2.85-21.58-8.56-5.1-5.72-7.65-13.82-7.65-24.29s2.58-19.03,7.75-24.88c5.18-5.86,12.55-8.79,22.13-8.79,3.08,0,6.17.33,9.25,1,3.08.66,5.51,1.43,7.27,2.33l-3,8.25c-2.14-.84-4.48-1.55-7.02-2.13-2.54-.57-4.79-.85-6.73-.85-13.04,0-19.56,8.32-19.56,24.96,0,7.88,1.59,13.93,4.77,18.15,3.18,4.22,7.9,6.33,14.15,6.33,5.34,0,10.83-1.15,16.46-3.46v8.6c-4.31,2.22-9.72,3.33-16.23,3.33Z"/>
        <path d="M656.44,1570.19h-9.71v-64.19h9.71v64.19ZM645.9,1488.6c0-2.22.55-3.84,1.65-4.88,1.09-1.04,2.46-1.56,4.1-1.56,1.55,0,2.9.53,4.02,1.58,1.14,1.06,1.71,2.68,1.71,4.85s-.57,3.83-1.71,4.9c-1.13,1.07-2.47,1.6-4.02,1.6-1.64,0-3.01-.53-4.1-1.6-1.1-1.07-1.65-2.7-1.65-4.9Z"/>
        <path d="M716.53,1570.19l-1.92-9.15h-.48c-3.2,4.03-6.39,6.76-9.58,8.19-3.18,1.42-7.16,2.13-11.92,2.13-6.36,0-11.35-1.64-14.96-4.92-3.61-3.28-5.42-7.94-5.42-14,0-12.96,10.36-19.75,31.1-20.38l10.9-.35v-3.98c0-5.04-1.08-8.76-3.25-11.15-2.17-2.4-5.64-3.6-10.4-3.6-5.35,0-11.41,1.64-18.17,4.92l-2.98-7.44c3.17-1.72,6.63-3.07,10.4-4.04,3.76-.97,7.54-1.46,11.33-1.46,7.65,0,13.32,1.7,17,5.1,3.69,3.39,5.54,8.83,5.54,16.31v43.81h-7.21ZM694.57,1563.33c6.05,0,10.81-1.66,14.27-4.98,3.46-3.32,5.19-7.96,5.19-13.94v-5.79l-9.73.42c-7.74.27-13.31,1.47-16.73,3.6-3.42,2.13-5.13,5.43-5.13,9.92,0,3.52,1.06,6.19,3.19,8.02,2.14,1.83,5.11,2.75,8.94,2.75Z"/>
        <path d="M818.61,1561.58h-.54c-4.49,6.52-11.2,9.77-20.15,9.77-8.39,0-14.92-2.86-19.58-8.6-4.67-5.73-7-13.9-7-24.48s2.34-18.8,7.02-24.65c4.69-5.86,11.21-8.79,19.56-8.79s15.39,3.16,20.04,9.48h.75l-.4-4.63-.25-4.5v-26.13h9.73v91.13h-7.9l-1.29-8.6ZM799.17,1563.21c6.63,0,11.43-1.8,14.42-5.42,2.98-3.61,4.48-9.44,4.48-17.48v-2.04c0-9.09-1.52-15.58-4.54-19.46-3.02-3.89-7.84-5.83-14.48-5.83-5.71,0-10.08,2.22-13.1,6.65-3.02,4.43-4.52,10.69-4.52,18.77s1.5,14.39,4.5,18.56c3.01,4.17,7.43,6.25,13.25,6.25Z"/>
        <path d="M875.52,1571.35c-9.49,0-16.97-2.89-22.46-8.67-5.49-5.78-8.23-13.8-8.23-24.06s2.55-18.56,7.65-24.65c5.09-6.09,11.94-9.15,20.52-9.15,8.04,0,14.4,2.65,19.08,7.94,4.69,5.29,7.04,12.27,7.04,20.94v6.15h-44.21c.19,7.53,2.09,13.25,5.71,17.17,3.61,3.91,8.69,5.85,15.25,5.85,6.92,0,13.75-1.44,20.5-4.33v8.67c-3.43,1.47-6.68,2.53-9.75,3.17-3.07.65-6.77.98-11.1.98ZM872.89,1512.98c-5.16,0-9.27,1.68-12.33,5.04-3.07,3.35-4.88,7.99-5.42,13.92h33.56c0-6.13-1.37-10.81-4.1-14.06-2.74-3.26-6.64-4.9-11.71-4.9Z"/>
        <path d="M960.89,1570.19l-24.35-64.19h10.42l13.83,38.06c3.13,8.91,4.96,14.68,5.5,17.33h.46c.43-2.07,1.78-6.35,4.06-12.85,2.29-6.5,7.42-20.68,15.4-42.54h10.42l-24.35,64.19h-11.38Z"/>
        <path d="M1016.64,1570.19h-9.71v-64.19h9.71v64.19ZM1006.1,1488.6c0-2.22.55-3.84,1.65-4.88,1.09-1.04,2.46-1.56,4.1-1.56,1.55,0,2.9.53,4.02,1.58,1.14,1.06,1.71,2.68,1.71,4.85s-.57,3.83-1.71,4.9c-1.13,1.07-2.47,1.6-4.02,1.6-1.64,0-3.01-.53-4.1-1.6-1.1-1.07-1.65-2.7-1.65-4.9Z"/>
        <path d="M1076.73,1570.19l-1.92-9.15h-.48c-3.2,4.03-6.39,6.76-9.58,8.19-3.18,1.42-7.16,2.13-11.92,2.13-6.36,0-11.35-1.64-14.96-4.92-3.61-3.28-5.42-7.94-5.42-14,0-12.96,10.36-19.75,31.1-20.38l10.9-.35v-3.98c0-5.04-1.08-8.76-3.25-11.15-2.17-2.4-5.64-3.6-10.4-3.6-5.35,0-11.41,1.64-18.17,4.92l-2.98-7.44c3.17-1.72,6.63-3.07,10.4-4.04,3.76-.97,7.54-1.46,11.33-1.46,7.65,0,13.32,1.7,17,5.1,3.69,3.39,5.54,8.83,5.54,16.31v43.81h-7.21ZM1054.77,1563.33c6.05,0,10.81-1.66,14.27-4.98,3.46-3.32,5.19-7.96,5.19-13.94v-5.79l-9.73.42c-7.74.27-13.31,1.47-16.73,3.6-3.42,2.13-5.13,5.43-5.13,9.92,0,3.52,1.06,6.19,3.19,8.02,2.14,1.83,5.11,2.75,8.94,2.75Z"/>
        <path d="M1156.49,1506v6.15l-11.88,1.42c1.08,1.36,2.05,3.15,2.92,5.35.86,2.21,1.29,4.7,1.29,7.46,0,6.29-2.15,11.31-6.44,15.06s-10.19,5.63-17.69,5.63c-1.92,0-3.72-.16-5.4-.48-4.14,2.2-6.21,4.95-6.21,8.27,0,1.75.72,3.05,2.17,3.9,1.44.83,3.92,1.25,7.44,1.25h11.38c6.94,0,12.28,1.47,16,4.4,3.73,2.93,5.6,7.19,5.6,12.77,0,7.09-2.85,12.51-8.56,16.23-5.7,3.73-14.01,5.6-24.94,5.6-8.39,0-14.86-1.56-19.42-4.69-4.54-3.13-6.81-7.54-6.81-13.23,0-3.91,1.24-7.29,3.73-10.15,2.5-2.84,6.02-4.78,10.56-5.79-1.66-.73-3.04-1.88-4.15-3.44-1.11-1.57-1.67-3.39-1.67-5.46,0-2.34.63-4.4,1.88-6.15,1.25-1.76,3.22-3.46,5.92-5.1-3.32-1.36-6.03-3.68-8.13-6.96-2.08-3.28-3.13-7.03-3.13-11.25,0-7.03,2.11-12.44,6.33-16.25,4.22-3.8,10.19-5.71,17.92-5.71,3.36,0,6.39.39,9.08,1.17h22.19ZM1105.3,1580.96c0,3.47,1.46,6.1,4.4,7.9,2.93,1.8,7.13,2.71,12.6,2.71,8.15,0,14.19-1.22,18.1-3.67,3.93-2.43,5.9-5.74,5.9-9.92,0-3.47-1.08-5.89-3.23-7.23-2.14-1.34-6.18-2.02-12.1-2.02h-11.67c-4.41,0-7.84,1.05-10.31,3.15-2.46,2.11-3.69,5.14-3.69,9.08ZM1110.57,1526.56c0,4.49,1.27,7.89,3.81,10.19,2.54,2.31,6.07,3.46,10.6,3.46,9.48,0,14.23-4.61,14.23-13.83s-4.81-14.46-14.42-14.46c-4.56,0-8.07,1.23-10.54,3.69-2.46,2.46-3.69,6.11-3.69,10.96Z"/>
        <path d="M1196.78,1571.35c-9.49,0-16.97-2.89-22.46-8.67-5.49-5.78-8.23-13.8-8.23-24.06s2.55-18.56,7.65-24.65c5.09-6.09,11.94-9.15,20.52-9.15,8.04,0,14.4,2.65,19.08,7.94,4.69,5.29,7.04,12.27,7.04,20.94v6.15h-44.21c.19,7.53,2.09,13.25,5.71,17.17,3.61,3.91,8.69,5.85,15.25,5.85,6.92,0,13.75-1.44,20.5-4.33v8.67c-3.43,1.47-6.68,2.53-9.75,3.17-3.07.65-6.77.98-11.1.98ZM1194.15,1512.98c-5.16,0-9.27,1.68-12.33,5.04-3.07,3.35-4.88,7.99-5.42,13.92h33.56c0-6.13-1.37-10.81-4.1-14.06-2.74-3.26-6.64-4.9-11.71-4.9Z"/>
        <path d="M1280.87,1570.19v-41.52c0-5.23-1.2-9.14-3.58-11.71-2.38-2.58-6.1-3.88-11.17-3.88-6.72,0-11.65,1.82-14.77,5.46-3.13,3.63-4.69,9.62-4.69,17.98v33.67h-9.71v-64.19h7.9l1.58,8.79h.48c1.98-3.17,4.77-5.61,8.35-7.35,3.59-1.73,7.6-2.6,12.02-2.6,7.72,0,13.53,1.87,17.44,5.6,3.92,3.72,5.88,9.68,5.88,17.88v41.88h-9.73Z"/>
        <path d="M1351.96,1552.69c0,5.97-2.23,10.58-6.69,13.81-4.45,3.24-10.69,4.85-18.73,4.85-8.52,0-15.16-1.34-19.92-4.04v-9.02c3.08,1.57,6.39,2.81,9.92,3.71,3.54.89,6.95,1.33,10.23,1.33,5.08,0,8.98-.8,11.71-2.42,2.73-1.63,4.1-4.09,4.1-7.42,0-2.5-1.08-4.64-3.25-6.42-2.17-1.78-6.39-3.88-12.67-6.29-5.97-2.22-10.22-4.16-12.75-5.81-2.52-1.67-4.39-3.55-5.63-5.67-1.22-2.11-1.83-4.63-1.83-7.56,0-5.22,2.13-9.34,6.38-12.38,4.26-3.03,10.1-4.54,17.52-4.54,6.9,0,13.65,1.41,20.25,4.21l-3.44,7.92c-6.45-2.65-12.29-3.98-17.52-3.98-4.61,0-8.09.72-10.44,2.17-2.33,1.45-3.5,3.43-3.5,5.96,0,1.72.44,3.19,1.31,4.4.89,1.21,2.3,2.36,4.25,3.46,1.96,1.1,5.71,2.68,11.25,4.75,7.61,2.77,12.75,5.56,15.42,8.38,2.68,2.81,4.02,6.34,4.02,10.6Z"/>
      </g>
    </g>
  </g>
</svg>